<svg xmlns="http://www.w3.org/2000/svg" width="375" viewBox="0 0 375 375" height="375" version="1.0"><defs><clipPath id="a"><path d="M 140.226562 131.234375 L 234.726562 131.234375 L 234.726562 191.910156 L 140.226562 191.910156 Z M 140.226562 131.234375"/></clipPath></defs><g clip-path="url(#a)"><path fill="#141515" d="M 174.78125 167.566406 L 174.78125 165.675781 L 171.449219 165.234375 L 171.449219 168.234375 Z M 179.335938 166.121094 L 179.335938 162.5625 L 183.449219 162.675781 L 183.449219 164.011719 C 181.890625 164.234375 180.449219 164.566406 179.335938 166.121094 Z M 185.113281 162.675781 L 185.113281 163.902344 L 187.78125 163.789062 L 187.78125 162.785156 Z M 195.777344 168.566406 C 195.777344 167.902344 195.890625 167.34375 196 166.675781 L 185.777344 168.902344 C 185.449219 169.566406 185.332031 170.34375 185.226562 171.234375 Z M 169.113281 155.558594 C 164.894531 154.003906 165.5625 146.890625 169.007812 145.777344 C 169.007812 145.777344 169.007812 145.777344 169.113281 145.777344 C 169.113281 145.890625 168.339844 146.78125 168.117188 147.226562 C 166.671875 150.113281 167.339844 153.117188 169.113281 155.558594 Z M 164.453125 150.894531 C 164.558594 154.339844 164.78125 154.5625 166.671875 157.117188 C 165.671875 157.671875 161.785156 154.671875 164.453125 150.894531 Z M 160.671875 154.449219 C 160.890625 154.894531 161.453125 156.339844 161.894531 156.675781 L 161.785156 156.5625 C 162.449219 157.453125 162.894531 157.5625 163.558594 158.230469 C 161.453125 158.898438 159.5625 156.785156 160.671875 154.449219 Z M 194.890625 141.554688 C 197.109375 139.332031 201.886719 141.109375 201.222656 144.558594 C 199.445312 141.667969 196.777344 141.445312 194.890625 141.554688 Z M 143.117188 185.90625 L 151.898438 184.910156 C 151.898438 184.910156 152.121094 186.351562 151.785156 186.351562 C 151.5625 186.351562 142.675781 186.242188 142.453125 186.128906 C 142.230469 186.019531 143.117188 185.90625 143.117188 185.90625 Z M 142.230469 172.457031 C 142.230469 172.457031 163.449219 165.566406 164.117188 165.566406 C 164.78125 165.675781 165.339844 166.230469 164.894531 166.453125 C 164.558594 166.566406 140.339844 173.570312 140.234375 173.347656 C 140.117188 173.125 142.230469 172.457031 142.230469 172.457031 Z M 157.453125 158.230469 C 157.785156 158.339844 158.785156 159.226562 159.117188 159.226562 C 159.898438 159.566406 160.226562 159.449219 161.007812 159.671875 C 159.78125 160.898438 157.5625 160.230469 157.453125 158.230469 Z M 191.445312 145.335938 C 192.890625 142.554688 198 142.890625 198.335938 146.339844 C 195.777344 144.113281 193.109375 144.558594 191.445312 145.335938 Z M 183.335938 143 C 185.003906 140.332031 190.003906 141.109375 190.113281 144.667969 C 187.78125 142.226562 185.113281 142.449219 183.335938 143 Z M 162.671875 183.351562 C 163.339844 183.351562 163.894531 184.6875 163.894531 186.128906 C 163.894531 187.683594 163.339844 188.910156 162.671875 188.910156 C 162.117188 188.910156 161.671875 188.019531 161.5625 186.90625 C 161.785156 187.574219 162.117188 188.019531 162.449219 188.019531 C 163.003906 188.019531 163.449219 187.019531 163.449219 185.796875 C 163.449219 184.464844 163.003906 183.460938 162.449219 183.460938 C 162.449219 183.460938 162.5625 183.351562 162.671875 183.351562 Z M 174.671875 182.90625 C 175.113281 182.90625 175.449219 183.128906 175.667969 183.683594 C 175.558594 183.460938 175.335938 183.351562 175.113281 183.351562 C 174.339844 183.351562 173.785156 184.574219 173.785156 186.019531 C 173.785156 187.351562 174.226562 188.460938 174.894531 188.6875 C 174.78125 188.6875 174.78125 188.6875 174.671875 188.6875 C 173.890625 188.6875 173.339844 187.351562 173.339844 185.796875 C 173.339844 184.128906 173.890625 182.90625 174.671875 182.90625 Z M 170.117188 183.351562 C 170.449219 183.351562 170.78125 183.683594 171.003906 184.128906 C 170.894531 183.90625 170.671875 183.792969 170.449219 183.792969 C 169.671875 183.792969 169.113281 184.910156 169.113281 186.351562 C 169.113281 187.574219 169.558594 188.578125 170.226562 188.800781 C 170.117188 188.800781 170.117188 188.800781 170.117188 188.800781 C 169.230469 188.800781 168.667969 187.574219 168.667969 186.019531 C 168.667969 184.574219 169.230469 183.351562 170.117188 183.351562 Z M 181.222656 187.019531 C 181.558594 187.019531 181.890625 186.351562 181.890625 185.574219 C 181.890625 184.910156 181.558594 184.238281 181.222656 184.238281 C 180.777344 184.238281 180.449219 184.910156 180.449219 185.574219 C 180.449219 186.351562 180.777344 187.019531 181.222656 187.019531 Z M 182.449219 184.128906 C 182.671875 184.128906 182.890625 183.570312 182.890625 182.90625 C 182.890625 182.238281 182.671875 181.683594 182.449219 181.683594 C 182.109375 181.683594 181.890625 182.238281 181.890625 182.90625 C 181.890625 183.570312 182.109375 184.128906 182.449219 184.128906 Z M 182.226562 176.90625 C 182.449219 176.90625 182.671875 176.90625 182.890625 177.015625 C 181.117188 177.238281 180.003906 179.125 179.667969 181.574219 C 180.113281 180.015625 180.777344 178.902344 181.667969 178.792969 C 180.671875 179.460938 179.890625 181.351562 179.890625 183.683594 C 179.890625 185.574219 180.335938 187.242188 181 188.128906 C 181.445312 188.578125 181.890625 188.910156 182.558594 189.023438 C 182.671875 189.023438 182.890625 189.023438 183.003906 189.023438 C 182.78125 189.132812 182.449219 189.242188 182.226562 189.242188 C 179.890625 189.242188 178.671875 186.464844 178.671875 183.015625 C 178.671875 179.679688 179.890625 176.90625 182.226562 176.90625 Z M 182.558594 184.6875 L 188.222656 184.6875 C 188.222656 184.910156 188.222656 185.242188 188.222656 185.464844 C 188.222656 185.796875 188.222656 186.128906 188.335938 186.464844 L 182.558594 186.464844 C 182.671875 186.242188 182.671875 185.90625 182.671875 185.574219 C 182.671875 185.242188 182.671875 184.910156 182.558594 184.6875 Z M 190.78125 184.015625 L 196.554688 178.460938 C 196.667969 179.125 196.886719 179.679688 197.109375 180.125 L 191.113281 185.574219 C 191.113281 185.019531 191 184.347656 190.78125 184.015625 Z M 190.78125 180.90625 C 191 180.90625 191.335938 181.574219 191.335938 182.351562 L 190.335938 183.351562 C 190.226562 183.015625 190.113281 182.683594 190.113281 182.351562 C 190.113281 181.574219 190.449219 180.90625 190.78125 180.90625 Z M 189.671875 187.019531 C 190.003906 187.019531 190.449219 186.351562 190.449219 185.574219 C 190.449219 184.910156 190.003906 184.238281 189.671875 184.238281 C 189.222656 184.238281 188.890625 184.910156 188.890625 185.574219 C 188.890625 186.351562 189.222656 187.019531 189.671875 187.019531 Z M 187.78125 180.351562 C 188.222656 178.792969 188.890625 177.792969 189.671875 177.683594 C 188.667969 178.347656 188 180.351562 188 182.792969 C 188 183.238281 188 183.683594 188 184.015625 L 186.78125 184.015625 C 186.78125 183.460938 186.667969 182.90625 186.667969 182.351562 C 186.667969 178.570312 188 175.570312 190.226562 175.570312 C 190.449219 175.570312 190.78125 175.570312 191 175.679688 C 189.222656 176.011719 188.113281 177.792969 187.78125 180.351562 Z M 188.890625 187.683594 C 189.445312 188.460938 190.113281 188.910156 191.113281 188.910156 C 190.78125 189.023438 190.558594 189.132812 190.226562 189.132812 C 189.222656 189.132812 188.445312 188.578125 187.890625 187.683594 Z M 206.109375 182.128906 C 206.554688 182.128906 207 182.574219 207.222656 183.128906 C 206.445312 182.460938 205.886719 183.015625 205.554688 183.90625 C 205.21875 185.128906 205.21875 188.460938 206.335938 188.910156 C 206.222656 188.910156 206.222656 188.910156 206.109375 188.910156 C 205.332031 188.910156 204.554688 187.351562 204.554688 185.574219 C 204.554688 183.683594 205.332031 182.128906 206.109375 182.128906 Z M 198.890625 176.347656 C 197.109375 178.460938 198.667969 181.019531 199.445312 181.019531 L 206.667969 180.796875 C 206.554688 180.683594 206.445312 180.460938 206.222656 180.351562 C 204.777344 180.238281 200.332031 180.238281 200 180.015625 C 199.777344 179.792969 204 179.015625 205.664062 178.792969 C 205.441406 177.460938 205.554688 176.125 206.222656 175.570312 Z M 221.882812 180.90625 L 225.773438 184.238281 L 223.554688 180.90625 Z M 216.332031 165.453125 C 216.441406 165.453125 216.550781 165.453125 216.664062 165.566406 C 216.332031 165.789062 216.109375 166.34375 216.109375 166.898438 C 216.109375 167.566406 216.332031 168.125 216.773438 168.347656 C 216.664062 168.457031 216.550781 168.457031 216.332031 168.457031 C 215.886719 168.457031 215.441406 167.789062 215.441406 167.007812 C 215.441406 166.121094 215.886719 165.453125 216.332031 165.453125 Z M 215.554688 161.34375 C 216.664062 161.34375 217.550781 162.339844 218.105469 163.789062 C 216.886719 161.898438 215.332031 162.230469 214.554688 163.339844 C 213.886719 164.34375 213.773438 165.789062 213.773438 167.007812 C 213.773438 169.34375 214.886719 171.34375 216.332031 171.34375 C 216.550781 171.34375 216.773438 171.234375 216.996094 171.121094 C 216.664062 171.566406 216.109375 171.789062 215.554688 171.789062 C 213.996094 171.789062 212.664062 169.457031 212.664062 166.566406 C 212.664062 163.789062 213.996094 161.34375 215.554688 161.34375 Z M 208.109375 178.792969 L 224.332031 178.792969 L 219 179.570312 L 218.441406 179.570312 L 224.550781 185.464844 L 224.332031 185.464844 L 218.328125 181.574219 L 220.886719 185.464844 L 220.664062 185.464844 L 216 180.683594 L 218.21875 185.464844 L 217.996094 185.464844 L 214.445312 180.683594 L 215.441406 185.464844 L 215.222656 185.464844 L 212.886719 180.238281 L 213.109375 185.464844 L 212.886719 185.464844 L 211.222656 179.570312 Z M 199 182.90625 C 199.445312 182.90625 199.777344 183.128906 200.109375 183.683594 C 199.335938 183.128906 198.667969 183.683594 198.445312 184.464844 C 198 185.464844 198 188.460938 199.222656 188.910156 C 199.113281 188.910156 199.113281 188.910156 199 188.910156 C 198.113281 188.910156 197.445312 187.574219 197.445312 185.90625 C 197.445312 184.238281 198.113281 182.90625 199 182.90625 Z M 154.894531 184.015625 C 155.449219 184.015625 155.894531 184.910156 156.007812 186.019531 L 162.230469 185.574219 L 162.230469 186.464844 L 156.007812 186.574219 C 156.007812 187.90625 155.449219 189.023438 154.894531 189.023438 C 154.339844 189.023438 153.894531 188.242188 153.785156 187.242188 C 154.007812 187.796875 154.230469 188.242188 154.671875 188.242188 C 155.117188 188.242188 155.449219 187.574219 155.566406 186.683594 L 154.339844 186.683594 L 154.339844 186.128906 L 155.671875 186.019531 C 155.566406 184.910156 155.117188 184.128906 154.671875 184.128906 L 154.5625 184.128906 C 154.671875 184.128906 154.785156 184.015625 154.894531 184.015625 Z M 213.996094 189.578125 L 216.886719 189.578125 C 216.441406 189.132812 216.109375 188.460938 215.886719 187.683594 L 214.886719 187.683594 C 214.667969 188.460938 214.445312 189.132812 213.996094 189.578125 Z M 208.441406 189.578125 L 211.109375 189.578125 C 210.667969 189.132812 210.445312 188.460938 210.21875 187.574219 L 210.109375 187.242188 L 209.550781 187.242188 C 209.332031 188.242188 209 189.132812 208.441406 189.578125 Z M 201.441406 189.578125 L 204.777344 189.578125 C 204.222656 189.132812 203.890625 188.242188 203.667969 187.242188 L 202.554688 187.242188 C 202.445312 188.242188 201.996094 189.132812 201.441406 189.578125 Z M 192.777344 189.578125 L 195.222656 189.578125 C 194.78125 189.132812 194.445312 188.578125 194.226562 187.90625 C 193.78125 188.578125 193.332031 189.132812 192.777344 189.578125 Z M 184.890625 189.578125 L 188 189.578125 C 187.335938 189.023438 186.78125 188.351562 186.335938 187.460938 C 186 188.351562 185.449219 189.023438 184.890625 189.578125 Z M 178.335938 189.578125 L 179.667969 189.578125 C 179.445312 189.355469 179.113281 189.023438 178.890625 188.6875 C 178.78125 189.023438 178.558594 189.355469 178.335938 189.578125 Z M 171.894531 189.578125 L 173.5625 189.578125 C 173.117188 189.242188 172.894531 188.6875 172.671875 188.019531 C 172.558594 188.6875 172.230469 189.242188 171.894531 189.578125 Z M 165.117188 189.578125 L 168.890625 189.578125 C 168.226562 189.023438 167.894531 187.90625 167.894531 186.574219 L 167.78125 186.574219 L 166.003906 186.464844 C 165.894531 187.796875 165.671875 188.910156 165.117188 189.578125 Z M 157.339844 189.578125 L 161.785156 189.578125 C 161.335938 189.023438 161.007812 188.242188 160.890625 187.242188 L 158.117188 187.242188 C 158.007812 188.242188 157.785156 189.023438 157.339844 189.578125 Z M 144.007812 189.578125 L 153.894531 189.578125 C 153.339844 189.023438 153.117188 188.019531 153.007812 186.90625 L 152.566406 186.90625 L 152.566406 183.683594 L 144.34375 184.574219 L 143.679688 184.238281 L 151.117188 183.128906 L 151.117188 175.457031 L 142.898438 177.015625 L 142.007812 176.792969 L 164.558594 171.457031 L 164.558594 172.902344 L 163.449219 173.125 L 163.449219 177.460938 L 162.785156 177.570312 L 162.117188 173.347656 L 160.671875 173.679688 L 160.671875 178.125 L 160.121094 178.125 L 159.5625 173.902344 L 157.785156 174.234375 L 157.785156 178.683594 L 157.117188 178.683594 L 156.675781 174.347656 L 154.894531 174.679688 L 154.894531 179.125 L 154.453125 179.125 L 154.117188 174.902344 L 152.449219 175.234375 L 152.449219 182.90625 L 165.5625 180.796875 L 165.5625 168.679688 L 144.34375 173.792969 L 144.34375 173.457031 L 165.5625 167.34375 L 168.785156 168.125 L 168.785156 171.566406 C 170.449219 171.34375 176.5625 170.234375 176.5625 170.566406 C 176.5625 170.789062 170.78125 172.679688 168.785156 173.125 L 168.785156 178.347656 C 170.449219 178.238281 176.5625 177.460938 176.5625 177.683594 C 176.5625 178.015625 170.78125 179.570312 168.785156 179.902344 L 168.785156 181.019531 L 176.445312 180.015625 L 177.449219 179.902344 L 177.449219 163.453125 L 176.226562 163.679688 L 176.226562 167.789062 L 170.003906 169.011719 L 170.003906 165.234375 L 168.785156 165.566406 L 168.785156 167.675781 C 168.785156 167.675781 168.5625 166.675781 168.117188 166.34375 C 167.78125 166.121094 167.449219 166.011719 167.117188 166.011719 L 166.894531 166.011719 L 166.78125 165.898438 L 166.671875 165.898438 L 165.671875 164.898438 L 177.449219 161.675781 L 177.449219 161.230469 L 165.785156 163.902344 L 166.117188 163.5625 L 177.449219 159.894531 C 177.449219 159.894531 181 158.785156 184.335938 159.121094 C 187.78125 159.566406 190.226562 161.007812 190.226562 161.007812 L 190.226562 161.785156 L 188.777344 162.007812 L 188.890625 163.679688 L 190.78125 163.339844 C 188.667969 164.34375 187.003906 166.011719 186 168.125 L 196.332031 165.011719 C 196.667969 163.902344 197.222656 162.785156 197.886719 162.007812 L 191.777344 163.339844 L 196.445312 161.898438 L 196.445312 157.007812 C 196.109375 156.894531 195.777344 156.894531 195.445312 157.007812 C 194.445312 157.339844 193.667969 157.894531 193.667969 157.894531 C 193.667969 157.894531 193.332031 157.671875 193.332031 157.453125 C 193.332031 157.117188 194.113281 155.558594 197 155.78125 L 197.222656 155.78125 L 197.222656 154.894531 C 196 154.5625 194.445312 155.007812 193.554688 155.675781 C 193.890625 154.5625 195.445312 154.003906 197 154.117188 C 196.554688 153.339844 196 153.117188 194.890625 153.339844 C 195.113281 153.117188 195.445312 153.003906 195.667969 152.894531 L 195.667969 152.78125 C 195.445312 152.78125 195.335938 152.671875 195.335938 152.671875 L 195.335938 151.339844 C 195.445312 151.222656 195.558594 151.117188 195.667969 151.117188 L 195.667969 151.003906 C 195.667969 150.894531 195.890625 150.671875 196.109375 150.671875 C 196.332031 150.671875 196.445312 150.894531 196.445312 151.003906 L 196.445312 151.117188 C 196.667969 151.222656 196.777344 151.339844 196.777344 151.445312 L 196.777344 152.5625 C 196.777344 152.671875 196.667969 152.78125 196.445312 152.78125 C 196.554688 152.894531 196.777344 152.894531 196.886719 152.894531 C 197.777344 153.226562 198.445312 154.003906 198.777344 154.671875 C 199 154.785156 199.222656 155.007812 199.445312 155.117188 C 200.109375 155.675781 200 155.78125 200 155.78125 C 200 155.78125 200 157.007812 199.777344 157.230469 C 199.667969 157.453125 199.222656 157.453125 199 157.453125 L 199 161.121094 L 199.113281 161.007812 C 199.335938 161.007812 199.445312 160.898438 199.554688 160.898438 L 199.777344 160.785156 L 208.664062 158.007812 L 208.664062 152.007812 C 207.222656 151.785156 205.332031 152.339844 205.21875 153.117188 L 205.21875 156.226562 L 204.664062 153.003906 L 202.113281 150.113281 C 203.777344 148.113281 208.222656 147.671875 211.222656 148.671875 L 211.222656 147.554688 C 208.886719 145.445312 204 145.445312 201.664062 147.113281 C 201.996094 145.445312 207.332031 143.558594 211 144.78125 C 210.332031 143.558594 209 142.777344 207.332031 142.777344 C 206.667969 142.777344 205.996094 142.890625 205.441406 143.113281 C 206.445312 142.449219 207.664062 142.109375 208.886719 142.109375 C 209.886719 142.109375 210.890625 142.449219 211.554688 142.890625 C 210.777344 141.886719 209.550781 141.222656 208 141.222656 C 207.332031 141.222656 206.777344 141.332031 206.109375 141.554688 C 207.222656 140.890625 208.332031 140.554688 209.550781 140.554688 C 209.886719 140.554688 210.21875 140.554688 210.554688 140.667969 C 209.886719 140 209 139.667969 208 139.667969 C 205.996094 139.667969 204.332031 141.222656 204.222656 143.113281 C 204.109375 143 204.109375 142.890625 204.109375 142.777344 C 204.109375 141.777344 204.445312 140.777344 205 140.109375 C 203.890625 138.664062 202.113281 137.996094 200.445312 138.664062 C 201.777344 137.441406 204.109375 137.21875 206.222656 138.886719 C 206.222656 138.777344 206.335938 138.664062 206.445312 138.664062 C 204.886719 135.554688 200.109375 135.886719 198.890625 139.332031 C 198.777344 138.886719 198.777344 138.558594 198.890625 138.113281 C 198 137.441406 196.886719 137 195.558594 137 C 194.003906 137 192.554688 137.773438 191.558594 138.886719 C 192.335938 137 194.226562 135.664062 196.445312 135.664062 C 197.554688 135.664062 198.667969 136.109375 199.554688 136.664062 C 199.667969 136.554688 199.777344 136.332031 199.890625 136.222656 C 196.667969 131.441406 188.335938 133.886719 188.445312 139.550781 C 188.554688 139.890625 188.554688 140.222656 188.554688 140.554688 L 188.445312 140.222656 C 184.5625 137.890625 178.890625 140.777344 180.113281 146.558594 C 180.113281 146.558594 179.890625 146.339844 179.558594 145.777344 L 179.558594 145.890625 C 176.890625 145.667969 175.558594 146.78125 174.226562 149.003906 C 174.449219 146.117188 176.667969 144.78125 179.226562 144.667969 C 179.113281 144.335938 179.113281 144.003906 179.003906 143.558594 C 178.558594 143.441406 178.117188 143.441406 177.671875 143.441406 C 174.78125 143.441406 172.230469 145.445312 171.671875 148.226562 C 171.449219 148.890625 171.335938 149.558594 171.335938 150.226562 C 171.335938 151.445312 171.671875 152.5625 172.230469 153.449219 C 171.003906 152.113281 170.339844 150.449219 170.339844 148.558594 C 170.339844 144.558594 173.5625 141.222656 177.554688 141.222656 C 178.117188 141.222656 178.671875 141.332031 179.113281 141.445312 C 180.113281 137.890625 184.667969 135.332031 188.335938 136.886719 C 189.445312 130.882812 198.558594 128.773438 201.664062 134.996094 C 204.109375 134.105469 207.332031 135.109375 208.332031 137.996094 C 208.554688 137.996094 208.777344 137.996094 209 137.996094 C 211.664062 137.996094 213.773438 140.109375 213.773438 142.777344 C 213.773438 143.886719 213.441406 144.78125 212.777344 145.667969 C 213.441406 146.117188 213.886719 146.667969 214.21875 147.332031 C 214.21875 147.332031 213.773438 149.890625 213.441406 150.113281 L 211 152.894531 C 211 153.003906 211 153.117188 211 153.226562 L 211 159.34375 L 209.886719 159.34375 L 200 161.566406 C 198.890625 162.453125 198 163.453125 197.332031 164.675781 L 207.886719 161.453125 C 207.664062 162.339844 207.332031 163.230469 207.222656 164.234375 L 196.554688 166.566406 C 196.332031 167.121094 196.222656 167.789062 196.109375 168.457031 L 207.113281 165.675781 C 207.113281 165.789062 207.113281 166.011719 207.113281 166.121094 C 207.113281 166.898438 207.113281 167.566406 207.222656 168.234375 L 185.113281 171.898438 L 185.113281 172.011719 L 179.335938 172.902344 L 179.445312 172.679688 L 185.003906 171.234375 C 185.003906 170.566406 185.003906 169.789062 185.113281 169.011719 L 181.445312 169.789062 L 181.558594 169.566406 L 185.226562 168.347656 C 185.554688 167.007812 186.222656 165.675781 187.113281 164.789062 C 183.558594 165.011719 180.558594 166.121094 178.78125 168.902344 C 178.78125 168.902344 178.226562 170.789062 178.449219 173.125 C 178.449219 174.347656 178.449219 175.011719 178.449219 175.457031 L 202.667969 171.121094 L 202.667969 174.125 L 208.222656 173.347656 C 207.554688 171.675781 207.554688 170.011719 208 167.902344 C 208.554688 171.011719 209.441406 173.015625 211.332031 174.570312 C 212 174.792969 212.554688 175.011719 212.886719 175.125 C 210.777344 173.792969 209.332031 170.566406 209.332031 166.789062 C 209.332031 163.230469 210.667969 160.117188 212.664062 158.675781 L 211.777344 158.675781 L 211.777344 155.007812 C 211.777344 155.007812 211.664062 153.78125 212.554688 153.003906 C 213.441406 152.339844 215.554688 152.339844 215.554688 152.339844 C 216.664062 152.5625 217.550781 153.003906 217.550781 154.339844 L 217.550781 158.5625 C 219.554688 159.894531 220.996094 163.121094 220.996094 166.789062 C 220.996094 169.902344 219.996094 172.679688 218.441406 174.347656 C 218.664062 174.234375 218.886719 174.125 219.109375 174.011719 C 219.554688 173.679688 219.996094 173.347656 220.332031 173.015625 L 222.328125 177.570312 L 225.328125 177.570312 L 225.328125 179.792969 L 228.664062 186.128906 L 230.769531 186.128906 L 230.769531 187.683594 L 221.550781 187.683594 C 221.441406 188.460938 221.109375 189.132812 220.554688 189.578125 L 231.21875 189.578125 C 236.773438 189.578125 234.992188 190.574219 230.992188 190.796875 L 204 191.910156 L 143.898438 190.132812 C 140.675781 190.019531 141.566406 189.578125 144.007812 189.578125 Z M 215.777344 153.339844 C 216.441406 153.339844 216.886719 154.339844 216.886719 155.558594 C 216.886719 156.785156 216.441406 157.785156 215.777344 157.785156 C 215.222656 157.785156 214.777344 156.785156 214.777344 155.558594 C 214.777344 154.339844 215.222656 153.339844 215.777344 153.339844" fill-rule="evenodd"/></g><g><g><g><path d="M 12.1875 -12.015625 L 7.296875 -4.21875 L 8.28125 -6.53125 L 8.28125 -4.21875 C 8.28125 -3.945312 8.285156 -3.660156 8.296875 -3.359375 C 8.304688 -3.054688 8.3125 -2.773438 8.3125 -2.515625 C 8.320312 -2.265625 8.335938 -2.046875 8.359375 -1.859375 C 8.378906 -1.679688 8.398438 -1.566406 8.421875 -1.515625 L 10.03125 -1.171875 L 9.96875 0 L 3.53125 0 L 3.453125 -1.171875 L 5.078125 -1.515625 C 5.085938 -1.566406 5.097656 -1.679688 5.109375 -1.859375 C 5.128906 -2.046875 5.144531 -2.265625 5.15625 -2.515625 C 5.175781 -2.773438 5.1875 -3.054688 5.1875 -3.359375 C 5.1875 -3.660156 5.1875 -3.945312 5.1875 -4.21875 L 5.1875 -6.53125 L 5.953125 -4.21875 L 1.34375 -12.015625 L 0.15625 -12.390625 L 0.234375 -13.546875 L 6.328125 -13.546875 L 6.390625 -12.390625 L 4.9375 -12.015625 L 7.875 -6.96875 L 7.3125 -6.96875 L 10.25 -12.015625 L 8.625 -12.390625 L 8.703125 -13.546875 L 13.296875 -13.546875 L 13.359375 -12.390625 Z M 12.1875 -12.015625" transform="translate(109.391 213.579)"/></g></g></g><g><g><g><path d="M 8.3125 0.203125 C 6.894531 0.203125 5.632812 -0.0859375 4.53125 -0.671875 C 3.4375 -1.253906 2.578125 -2.054688 1.953125 -3.078125 C 1.328125 -4.097656 1.015625 -5.269531 1.015625 -6.59375 C 1.015625 -7.976562 1.328125 -9.207031 1.953125 -10.28125 C 2.578125 -11.363281 3.441406 -12.210938 4.546875 -12.828125 C 5.648438 -13.441406 6.910156 -13.75 8.328125 -13.75 C 9.691406 -13.75 10.894531 -13.457031 11.9375 -12.875 C 12.988281 -12.300781 13.8125 -11.503906 14.40625 -10.484375 C 15.007812 -9.472656 15.3125 -8.289062 15.3125 -6.9375 C 15.3125 -5.757812 15.09375 -4.722656 14.65625 -3.828125 C 14.21875 -2.929688 13.648438 -2.179688 12.953125 -1.578125 C 12.253906 -0.984375 11.492188 -0.535156 10.671875 -0.234375 C 9.859375 0.0546875 9.070312 0.203125 8.3125 0.203125 Z M 8.484375 -1.515625 C 9.191406 -1.515625 9.785156 -1.703125 10.265625 -2.078125 C 10.742188 -2.460938 11.101562 -3.015625 11.34375 -3.734375 C 11.582031 -4.460938 11.703125 -5.34375 11.703125 -6.375 C 11.703125 -7.550781 11.546875 -8.578125 11.234375 -9.453125 C 10.929688 -10.335938 10.507812 -11.019531 9.96875 -11.5 C 9.425781 -11.988281 8.785156 -12.234375 8.046875 -12.234375 C 6.984375 -12.234375 6.148438 -11.789062 5.546875 -10.90625 C 4.953125 -10.03125 4.65625 -8.816406 4.65625 -7.265625 C 4.65625 -6.128906 4.820312 -5.128906 5.15625 -4.265625 C 5.488281 -3.398438 5.9375 -2.722656 6.5 -2.234375 C 7.070312 -1.753906 7.734375 -1.515625 8.484375 -1.515625 Z M 8.484375 -1.515625" transform="translate(124.92 213.579)"/></g></g></g><g><g><g><path d="M 0.828125 -13.546875 L 7.015625 -13.546875 L 7.078125 -12.390625 L 5.609375 -12 C 5.585938 -11.84375 5.566406 -11.597656 5.546875 -11.265625 C 5.535156 -10.941406 5.519531 -10.539062 5.5 -10.0625 C 5.488281 -9.59375 5.484375 -9.050781 5.484375 -8.4375 L 5.484375 -6.0625 C 5.484375 -5.175781 5.609375 -4.425781 5.859375 -3.8125 C 6.117188 -3.195312 6.492188 -2.734375 6.984375 -2.421875 C 7.484375 -2.117188 8.085938 -1.96875 8.796875 -1.96875 C 9.492188 -1.96875 10.078125 -2.113281 10.546875 -2.40625 C 11.023438 -2.707031 11.378906 -3.164062 11.609375 -3.78125 C 11.835938 -4.394531 11.953125 -5.164062 11.953125 -6.09375 L 11.953125 -8.03125 C 11.953125 -8.738281 11.941406 -9.382812 11.921875 -9.96875 C 11.910156 -10.550781 11.890625 -11.019531 11.859375 -11.375 C 11.835938 -11.738281 11.816406 -11.945312 11.796875 -12 L 10.171875 -12.390625 L 10.25 -13.546875 L 15.390625 -13.546875 L 15.453125 -12.390625 L 13.984375 -12 C 13.960938 -11.945312 13.941406 -11.738281 13.921875 -11.375 C 13.898438 -11.019531 13.878906 -10.550781 13.859375 -9.96875 C 13.847656 -9.382812 13.84375 -8.738281 13.84375 -8.03125 L 13.84375 -5.703125 C 13.84375 -4.484375 13.617188 -3.429688 13.171875 -2.546875 C 12.722656 -1.660156 12.085938 -0.976562 11.265625 -0.5 C 10.441406 -0.03125 9.472656 0.203125 8.359375 0.203125 C 6.429688 0.203125 4.945312 -0.304688 3.90625 -1.328125 C 2.875 -2.347656 2.359375 -3.796875 2.359375 -5.671875 L 2.359375 -8.4375 C 2.359375 -9.082031 2.347656 -9.664062 2.328125 -10.1875 C 2.316406 -10.71875 2.300781 -11.140625 2.28125 -11.453125 C 2.269531 -11.765625 2.253906 -11.945312 2.234375 -12 L 0.765625 -12.390625 Z M 0.828125 -13.546875" transform="translate(143.264 213.579)"/></g></g></g><g><g><g><path d="M 12 0.140625 C 11.5625 0.109375 11.039062 0.078125 10.4375 0.046875 C 9.832031 0.015625 9.285156 0 8.796875 0 L 0.859375 0 L 0.78125 -1.15625 L 2.265625 -1.515625 C 2.296875 -1.597656 2.320312 -1.800781 2.34375 -2.125 C 2.363281 -2.445312 2.378906 -2.863281 2.390625 -3.375 C 2.410156 -3.894531 2.421875 -4.460938 2.421875 -5.078125 L 2.421875 -8.4375 C 2.421875 -9.082031 2.410156 -9.660156 2.390625 -10.171875 C 2.378906 -10.691406 2.363281 -11.113281 2.34375 -11.4375 C 2.320312 -11.757812 2.296875 -11.953125 2.265625 -12.015625 L 0.78125 -12.390625 L 0.859375 -13.546875 L 7.953125 -13.546875 C 8.265625 -13.546875 8.640625 -13.546875 9.078125 -13.546875 C 9.515625 -13.554688 9.941406 -13.570312 10.359375 -13.59375 C 10.785156 -13.625 11.144531 -13.644531 11.4375 -13.65625 L 12.0625 -10.25 L 10.734375 -10.0625 L 9.875 -12.09375 C 9.675781 -12.132812 9.492188 -12.160156 9.328125 -12.171875 C 9.171875 -12.191406 9 -12.203125 8.8125 -12.203125 L 7.0625 -12.203125 C 6.769531 -12.203125 6.488281 -12.195312 6.21875 -12.1875 C 5.945312 -12.1875 5.726562 -12.171875 5.5625 -12.140625 C 5.5625 -12.015625 5.554688 -11.828125 5.546875 -11.578125 C 5.535156 -11.335938 5.523438 -11.023438 5.515625 -10.640625 C 5.515625 -10.253906 5.515625 -9.800781 5.515625 -9.28125 L 5.515625 -4.4375 C 5.515625 -3.9375 5.515625 -3.492188 5.515625 -3.109375 C 5.523438 -2.722656 5.535156 -2.40625 5.546875 -2.15625 C 5.554688 -1.90625 5.5625 -1.707031 5.5625 -1.5625 C 5.832031 -1.519531 6.117188 -1.488281 6.421875 -1.46875 C 6.734375 -1.457031 7.125 -1.453125 7.59375 -1.453125 L 8.8125 -1.453125 C 9.207031 -1.453125 9.5 -1.457031 9.6875 -1.46875 C 9.882812 -1.476562 10.035156 -1.488281 10.140625 -1.5 C 10.242188 -1.507812 10.347656 -1.523438 10.453125 -1.546875 L 11.71875 -3.859375 L 13.03125 -3.59375 Z M 9.0625 -4.609375 L 8.84375 -6.15625 C 8.726562 -6.175781 8.554688 -6.1875 8.328125 -6.1875 C 8.097656 -6.195312 7.828125 -6.203125 7.515625 -6.203125 L 6.296875 -6.203125 C 6.035156 -6.203125 5.785156 -6.191406 5.546875 -6.171875 C 5.304688 -6.160156 5.125 -6.148438 5 -6.140625 L 5 -7.78125 C 5.125 -7.757812 5.304688 -7.738281 5.546875 -7.71875 C 5.785156 -7.707031 6.035156 -7.703125 6.296875 -7.703125 L 7.515625 -7.703125 C 7.828125 -7.703125 8.097656 -7.707031 8.328125 -7.71875 C 8.554688 -7.726562 8.726562 -7.734375 8.84375 -7.734375 L 9.0625 -9.28125 L 10.34375 -9.28125 L 10.34375 -4.609375 Z M 9.0625 -4.609375" transform="translate(161.47 213.579)"/></g></g></g><g><g><g><path d="M 13.9375 0 L 7.703125 0 L 7.640625 -1.15625 L 9.0625 -1.546875 L 6.453125 -5.328125 L 5.515625 -6.625 L 1.75 -12.015625 L 0.578125 -12.390625 L 0.640625 -13.546875 L 6.546875 -13.546875 L 6.625 -12.390625 L 5.484375 -12.015625 L 7.59375 -9.015625 L 8.46875 -7.75 L 12.828125 -1.546875 L 14 -1.15625 Z M 9.671875 -12.015625 L 8.46875 -12.390625 L 8.53125 -13.546875 L 12.96875 -13.546875 L 13.03125 -12.390625 L 11.859375 -12.015625 L 8.46875 -7.75 L 6.453125 -5.328125 L 3.859375 -1.546875 L 5.359375 -1.15625 L 5.28125 0 L 0.546875 0 L 0.484375 -1.15625 L 1.65625 -1.546875 L 5.515625 -6.625 L 7.59375 -9.015625 Z M 9.671875 -12.015625" transform="translate(176.906 213.579)"/></g></g></g><g><g><g><path d="M 0.96875 0 L 0.90625 -1.15625 L 2.265625 -1.515625 C 2.304688 -1.578125 2.332031 -1.757812 2.34375 -2.0625 C 2.363281 -2.375 2.378906 -2.78125 2.390625 -3.28125 C 2.410156 -3.78125 2.421875 -4.335938 2.421875 -4.953125 L 2.453125 -8.671875 C 2.453125 -9.253906 2.441406 -9.789062 2.421875 -10.28125 C 2.410156 -10.78125 2.394531 -11.191406 2.375 -11.515625 C 2.363281 -11.835938 2.332031 -12.03125 2.28125 -12.09375 L 0.828125 -12.390625 L 0.90625 -13.546875 L 6.765625 -13.546875 C 8.648438 -13.546875 10.054688 -13.203125 10.984375 -12.515625 C 11.921875 -11.828125 12.390625 -10.847656 12.390625 -9.578125 C 12.390625 -8.734375 12.164062 -7.972656 11.71875 -7.296875 C 11.269531 -6.617188 10.625 -6.082031 9.78125 -5.6875 C 8.945312 -5.289062 7.941406 -5.09375 6.765625 -5.09375 C 6.503906 -5.09375 6.238281 -5.109375 5.96875 -5.140625 C 5.707031 -5.171875 5.460938 -5.210938 5.234375 -5.265625 L 5.234375 -6.859375 C 5.398438 -6.773438 5.613281 -6.707031 5.875 -6.65625 C 6.144531 -6.601562 6.441406 -6.578125 6.765625 -6.578125 C 7.503906 -6.578125 8.070312 -6.804688 8.46875 -7.265625 C 8.863281 -7.722656 9.0625 -8.394531 9.0625 -9.28125 C 9.0625 -10.3125 8.804688 -11.0625 8.296875 -11.53125 C 7.796875 -12.007812 7.109375 -12.25 6.234375 -12.25 L 5.578125 -12.25 C 5.578125 -12.125 5.570312 -11.914062 5.5625 -11.625 C 5.5625 -11.332031 5.554688 -10.941406 5.546875 -10.453125 C 5.535156 -9.972656 5.53125 -9.378906 5.53125 -8.671875 L 5.5625 -4.953125 C 5.5625 -4.335938 5.570312 -3.78125 5.59375 -3.28125 C 5.613281 -2.78125 5.632812 -2.378906 5.65625 -2.078125 C 5.6875 -1.785156 5.707031 -1.609375 5.71875 -1.546875 L 7.59375 -1.203125 L 7.515625 0 Z M 0.96875 0" transform="translate(192.92 213.579)"/></g></g></g><g><g><g><path d="M 0.96875 0 L 0.90625 -1.15625 L 2.375 -1.546875 C 2.375 -1.640625 2.378906 -1.816406 2.390625 -2.078125 C 2.398438 -2.335938 2.40625 -2.644531 2.40625 -3 C 2.414062 -3.351562 2.425781 -3.710938 2.4375 -4.078125 C 2.445312 -4.453125 2.453125 -4.785156 2.453125 -5.078125 L 2.453125 -8.4375 C 2.453125 -9.082031 2.441406 -9.660156 2.421875 -10.171875 C 2.410156 -10.691406 2.390625 -11.113281 2.359375 -11.4375 C 2.335938 -11.757812 2.3125 -11.953125 2.28125 -12.015625 L 0.8125 -12.390625 L 0.875 -13.546875 L 6.859375 -13.546875 C 8.617188 -13.546875 9.921875 -13.265625 10.765625 -12.703125 C 11.617188 -12.140625 12.046875 -11.25 12.046875 -10.03125 C 12.046875 -9.28125 11.8125 -8.609375 11.34375 -8.015625 C 10.882812 -7.421875 10.25 -6.953125 9.4375 -6.609375 C 8.632812 -6.273438 7.710938 -6.109375 6.671875 -6.109375 L 5.171875 -6.109375 L 5.171875 -7.453125 L 6.203125 -7.453125 C 6.972656 -7.453125 7.59375 -7.6875 8.0625 -8.15625 C 8.53125 -8.625 8.765625 -9.25 8.765625 -10.03125 C 8.765625 -10.757812 8.566406 -11.3125 8.171875 -11.6875 C 7.785156 -12.0625 7.210938 -12.25 6.453125 -12.25 L 5.578125 -12.25 C 5.566406 -12.207031 5.554688 -12.078125 5.546875 -11.859375 C 5.535156 -11.640625 5.53125 -11.363281 5.53125 -11.03125 C 5.53125 -10.707031 5.53125 -10.34375 5.53125 -9.9375 C 5.53125 -9.53125 5.53125 -9.09375 5.53125 -8.625 L 5.53125 -5.078125 C 5.53125 -4.671875 5.535156 -4.226562 5.546875 -3.75 C 5.554688 -3.28125 5.566406 -2.84375 5.578125 -2.4375 C 5.597656 -2.03125 5.613281 -1.734375 5.625 -1.546875 L 6.921875 -1.15625 L 6.859375 0 Z M 13.015625 0.28125 C 12.148438 0.28125 11.382812 0.144531 10.71875 -0.125 C 10.050781 -0.40625 9.453125 -0.835938 8.921875 -1.421875 C 8.390625 -2.015625 7.914062 -2.753906 7.5 -3.640625 L 6.1875 -6.484375 L 8.75 -7.078125 L 11.484375 -3.25 C 11.804688 -2.800781 12.117188 -2.421875 12.421875 -2.109375 C 12.734375 -1.804688 13.054688 -1.554688 13.390625 -1.359375 C 13.734375 -1.171875 14.097656 -1.023438 14.484375 -0.921875 L 14.46875 0.140625 C 14.21875 0.179688 13.972656 0.210938 13.734375 0.234375 C 13.492188 0.265625 13.253906 0.28125 13.015625 0.28125 Z M 13.015625 0.28125" transform="translate(208.057 213.579)"/></g></g></g><g><g><g><path d="M 12 0.140625 C 11.5625 0.109375 11.039062 0.078125 10.4375 0.046875 C 9.832031 0.015625 9.285156 0 8.796875 0 L 0.859375 0 L 0.78125 -1.15625 L 2.265625 -1.515625 C 2.296875 -1.597656 2.320312 -1.800781 2.34375 -2.125 C 2.363281 -2.445312 2.378906 -2.863281 2.390625 -3.375 C 2.410156 -3.894531 2.421875 -4.460938 2.421875 -5.078125 L 2.421875 -8.4375 C 2.421875 -9.082031 2.410156 -9.660156 2.390625 -10.171875 C 2.378906 -10.691406 2.363281 -11.113281 2.34375 -11.4375 C 2.320312 -11.757812 2.296875 -11.953125 2.265625 -12.015625 L 0.78125 -12.390625 L 0.859375 -13.546875 L 7.953125 -13.546875 C 8.265625 -13.546875 8.640625 -13.546875 9.078125 -13.546875 C 9.515625 -13.554688 9.941406 -13.570312 10.359375 -13.59375 C 10.785156 -13.625 11.144531 -13.644531 11.4375 -13.65625 L 12.0625 -10.25 L 10.734375 -10.0625 L 9.875 -12.09375 C 9.675781 -12.132812 9.492188 -12.160156 9.328125 -12.171875 C 9.171875 -12.191406 9 -12.203125 8.8125 -12.203125 L 7.0625 -12.203125 C 6.769531 -12.203125 6.488281 -12.195312 6.21875 -12.1875 C 5.945312 -12.1875 5.726562 -12.171875 5.5625 -12.140625 C 5.5625 -12.015625 5.554688 -11.828125 5.546875 -11.578125 C 5.535156 -11.335938 5.523438 -11.023438 5.515625 -10.640625 C 5.515625 -10.253906 5.515625 -9.800781 5.515625 -9.28125 L 5.515625 -4.4375 C 5.515625 -3.9375 5.515625 -3.492188 5.515625 -3.109375 C 5.523438 -2.722656 5.535156 -2.40625 5.546875 -2.15625 C 5.554688 -1.90625 5.5625 -1.707031 5.5625 -1.5625 C 5.832031 -1.519531 6.117188 -1.488281 6.421875 -1.46875 C 6.734375 -1.457031 7.125 -1.453125 7.59375 -1.453125 L 8.8125 -1.453125 C 9.207031 -1.453125 9.5 -1.457031 9.6875 -1.46875 C 9.882812 -1.476562 10.035156 -1.488281 10.140625 -1.5 C 10.242188 -1.507812 10.347656 -1.523438 10.453125 -1.546875 L 11.71875 -3.859375 L 13.03125 -3.59375 Z M 9.0625 -4.609375 L 8.84375 -6.15625 C 8.726562 -6.175781 8.554688 -6.1875 8.328125 -6.1875 C 8.097656 -6.195312 7.828125 -6.203125 7.515625 -6.203125 L 6.296875 -6.203125 C 6.035156 -6.203125 5.785156 -6.191406 5.546875 -6.171875 C 5.304688 -6.160156 5.125 -6.148438 5 -6.140625 L 5 -7.78125 C 5.125 -7.757812 5.304688 -7.738281 5.546875 -7.71875 C 5.785156 -7.707031 6.035156 -7.703125 6.296875 -7.703125 L 7.515625 -7.703125 C 7.828125 -7.703125 8.097656 -7.707031 8.328125 -7.71875 C 8.554688 -7.726562 8.726562 -7.734375 8.84375 -7.734375 L 9.0625 -9.28125 L 10.34375 -9.28125 L 10.34375 -4.609375 Z M 9.0625 -4.609375" transform="translate(224.486 213.579)"/></g></g></g><g><g><g><path d="M 5.421875 0.203125 C 4.765625 0.203125 4.046875 0.113281 3.265625 -0.0625 C 2.484375 -0.25 1.816406 -0.5 1.265625 -0.8125 L 1.15625 -4.21875 L 2.625 -4.3125 L 3.421875 -1.9375 C 3.742188 -1.738281 4.109375 -1.582031 4.515625 -1.46875 C 4.929688 -1.351562 5.332031 -1.296875 5.71875 -1.296875 C 6.414062 -1.296875 6.941406 -1.441406 7.296875 -1.734375 C 7.660156 -2.023438 7.84375 -2.414062 7.84375 -2.90625 C 7.84375 -3.445312 7.679688 -3.878906 7.359375 -4.203125 C 7.046875 -4.523438 6.632812 -4.800781 6.125 -5.03125 C 5.625 -5.257812 5.085938 -5.484375 4.515625 -5.703125 C 3.953125 -5.929688 3.414062 -6.203125 2.90625 -6.515625 C 2.394531 -6.828125 1.984375 -7.226562 1.671875 -7.71875 C 1.359375 -8.21875 1.203125 -8.859375 1.203125 -9.640625 C 1.203125 -10.472656 1.4375 -11.203125 1.90625 -11.828125 C 2.375 -12.453125 3.035156 -12.9375 3.890625 -13.28125 C 4.742188 -13.625 5.734375 -13.796875 6.859375 -13.796875 C 7.210938 -13.796875 7.59375 -13.769531 8 -13.71875 C 8.414062 -13.675781 8.816406 -13.601562 9.203125 -13.5 C 9.585938 -13.40625 9.921875 -13.296875 10.203125 -13.171875 L 10.46875 -9.8125 L 9 -9.71875 L 8.265625 -11.96875 C 7.785156 -12.21875 7.238281 -12.34375 6.625 -12.34375 C 5.988281 -12.34375 5.46875 -12.179688 5.0625 -11.859375 C 4.65625 -11.546875 4.453125 -11.109375 4.453125 -10.546875 C 4.453125 -10.035156 4.613281 -9.613281 4.9375 -9.28125 C 5.257812 -8.957031 5.675781 -8.675781 6.1875 -8.4375 C 6.707031 -8.195312 7.253906 -7.960938 7.828125 -7.734375 C 8.410156 -7.503906 8.953125 -7.226562 9.453125 -6.90625 C 9.960938 -6.59375 10.378906 -6.195312 10.703125 -5.71875 C 11.023438 -5.238281 11.1875 -4.632812 11.1875 -3.90625 C 11.1875 -3.113281 10.945312 -2.40625 10.46875 -1.78125 C 10 -1.164062 9.328125 -0.679688 8.453125 -0.328125 C 7.585938 0.0234375 6.578125 0.203125 5.421875 0.203125 Z M 5.421875 0.203125" transform="translate(239.923 213.579)"/></g></g></g><g><g><g><path d="M 5.421875 0.203125 C 4.765625 0.203125 4.046875 0.113281 3.265625 -0.0625 C 2.484375 -0.25 1.816406 -0.5 1.265625 -0.8125 L 1.15625 -4.21875 L 2.625 -4.3125 L 3.421875 -1.9375 C 3.742188 -1.738281 4.109375 -1.582031 4.515625 -1.46875 C 4.929688 -1.351562 5.332031 -1.296875 5.71875 -1.296875 C 6.414062 -1.296875 6.941406 -1.441406 7.296875 -1.734375 C 7.660156 -2.023438 7.84375 -2.414062 7.84375 -2.90625 C 7.84375 -3.445312 7.679688 -3.878906 7.359375 -4.203125 C 7.046875 -4.523438 6.632812 -4.800781 6.125 -5.03125 C 5.625 -5.257812 5.085938 -5.484375 4.515625 -5.703125 C 3.953125 -5.929688 3.414062 -6.203125 2.90625 -6.515625 C 2.394531 -6.828125 1.984375 -7.226562 1.671875 -7.71875 C 1.359375 -8.21875 1.203125 -8.859375 1.203125 -9.640625 C 1.203125 -10.472656 1.4375 -11.203125 1.90625 -11.828125 C 2.375 -12.453125 3.035156 -12.9375 3.890625 -13.28125 C 4.742188 -13.625 5.734375 -13.796875 6.859375 -13.796875 C 7.210938 -13.796875 7.59375 -13.769531 8 -13.71875 C 8.414062 -13.675781 8.816406 -13.601562 9.203125 -13.5 C 9.585938 -13.40625 9.921875 -13.296875 10.203125 -13.171875 L 10.46875 -9.8125 L 9 -9.71875 L 8.265625 -11.96875 C 7.785156 -12.21875 7.238281 -12.34375 6.625 -12.34375 C 5.988281 -12.34375 5.46875 -12.179688 5.0625 -11.859375 C 4.65625 -11.546875 4.453125 -11.109375 4.453125 -10.546875 C 4.453125 -10.035156 4.613281 -9.613281 4.9375 -9.28125 C 5.257812 -8.957031 5.675781 -8.675781 6.1875 -8.4375 C 6.707031 -8.195312 7.253906 -7.960938 7.828125 -7.734375 C 8.410156 -7.503906 8.953125 -7.226562 9.453125 -6.90625 C 9.960938 -6.59375 10.378906 -6.195312 10.703125 -5.71875 C 11.023438 -5.238281 11.1875 -4.632812 11.1875 -3.90625 C 11.1875 -3.113281 10.945312 -2.40625 10.46875 -1.78125 C 10 -1.164062 9.328125 -0.679688 8.453125 -0.328125 C 7.585938 0.0234375 6.578125 0.203125 5.421875 0.203125 Z M 5.421875 0.203125" transform="translate(253.767 213.579)"/></g></g></g><g><g><g><path d="M 6.71875 -6.9375 L 6.984375 -4.859375 L 6.265625 -4.8125 L 5.796875 -6.15625 C 5.710938 -6.164062 5.628906 -6.171875 5.546875 -6.171875 C 5.460938 -6.179688 5.367188 -6.1875 5.265625 -6.1875 L 4.859375 -6.1875 C 4.796875 -6.1875 4.71875 -6.1875 4.625 -6.1875 C 4.53125 -6.1875 4.460938 -6.179688 4.421875 -6.171875 C 4.421875 -6.117188 4.414062 -5.972656 4.40625 -5.734375 C 4.40625 -5.492188 4.398438 -5.203125 4.390625 -4.859375 C 4.390625 -4.523438 4.390625 -4.1875 4.390625 -3.84375 L 4.390625 -2.75 C 4.390625 -2.3125 4.394531 -1.914062 4.40625 -1.5625 C 4.414062 -1.21875 4.425781 -0.957031 4.4375 -0.78125 L 5.453125 -0.609375 L 5.421875 0 L 1.765625 0 L 1.734375 -0.609375 L 2.75 -0.78125 C 2.757812 -0.957031 2.769531 -1.21875 2.78125 -1.5625 C 2.789062 -1.914062 2.796875 -2.3125 2.796875 -2.75 L 2.796875 -3.84375 C 2.796875 -4.1875 2.789062 -4.523438 2.78125 -4.859375 C 2.78125 -5.203125 2.78125 -5.492188 2.78125 -5.734375 C 2.78125 -5.972656 2.773438 -6.117188 2.765625 -6.171875 C 2.722656 -6.179688 2.65625 -6.1875 2.5625 -6.1875 C 2.46875 -6.1875 2.390625 -6.1875 2.328125 -6.1875 L 1.90625 -6.1875 C 1.8125 -6.1875 1.71875 -6.179688 1.625 -6.171875 C 1.53125 -6.171875 1.441406 -6.164062 1.359375 -6.15625 L 0.921875 -4.78125 L 0.1875 -4.859375 L 0.4375 -6.9375 C 0.507812 -6.9375 0.617188 -6.929688 0.765625 -6.921875 C 0.910156 -6.921875 1.0625 -6.914062 1.21875 -6.90625 C 1.382812 -6.894531 1.539062 -6.882812 1.6875 -6.875 C 1.84375 -6.875 1.976562 -6.875 2.09375 -6.875 L 5.0625 -6.875 C 5.175781 -6.875 5.304688 -6.875 5.453125 -6.875 C 5.597656 -6.882812 5.753906 -6.894531 5.921875 -6.90625 C 6.085938 -6.914062 6.238281 -6.921875 6.375 -6.921875 C 6.519531 -6.929688 6.632812 -6.9375 6.71875 -6.9375 Z M 6.71875 -6.9375" transform="translate(125.825 231.097)"/></g></g></g><g><g><g><path d="M 0.5 0 L 0.453125 -0.59375 L 1.203125 -0.78125 C 1.203125 -0.832031 1.203125 -0.921875 1.203125 -1.046875 C 1.210938 -1.179688 1.21875 -1.335938 1.21875 -1.515625 C 1.226562 -1.703125 1.234375 -1.890625 1.234375 -2.078125 C 1.242188 -2.265625 1.25 -2.429688 1.25 -2.578125 L 1.25 -4.296875 C 1.25 -4.617188 1.242188 -4.910156 1.234375 -5.171875 C 1.222656 -5.429688 1.210938 -5.644531 1.203125 -5.8125 C 1.191406 -5.976562 1.175781 -6.078125 1.15625 -6.109375 L 0.40625 -6.296875 L 0.453125 -6.875 L 3.484375 -6.875 C 4.378906 -6.875 5.039062 -6.734375 5.46875 -6.453125 C 5.90625 -6.171875 6.125 -5.71875 6.125 -5.09375 C 6.125 -4.71875 6.003906 -4.378906 5.765625 -4.078125 C 5.535156 -3.773438 5.210938 -3.535156 4.796875 -3.359375 C 4.390625 -3.191406 3.921875 -3.109375 3.390625 -3.109375 L 2.625 -3.109375 L 2.625 -3.78125 L 3.15625 -3.78125 C 3.539062 -3.78125 3.851562 -3.898438 4.09375 -4.140625 C 4.332031 -4.378906 4.453125 -4.695312 4.453125 -5.09375 C 4.453125 -5.46875 4.351562 -5.75 4.15625 -5.9375 C 3.957031 -6.125 3.664062 -6.21875 3.28125 -6.21875 L 2.84375 -6.21875 C 2.832031 -6.195312 2.820312 -6.128906 2.8125 -6.015625 C 2.8125 -5.910156 2.8125 -5.773438 2.8125 -5.609375 C 2.8125 -5.441406 2.8125 -5.253906 2.8125 -5.046875 C 2.8125 -4.835938 2.8125 -4.617188 2.8125 -4.390625 L 2.8125 -2.578125 C 2.8125 -2.378906 2.8125 -2.15625 2.8125 -1.90625 C 2.820312 -1.664062 2.828125 -1.441406 2.828125 -1.234375 C 2.835938 -1.023438 2.847656 -0.875 2.859375 -0.78125 L 3.515625 -0.59375 L 3.484375 0 Z M 6.609375 0.140625 C 6.171875 0.140625 5.78125 0.0703125 5.4375 -0.0625 C 5.101562 -0.207031 4.800781 -0.425781 4.53125 -0.71875 C 4.257812 -1.019531 4.019531 -1.398438 3.8125 -1.859375 L 3.140625 -3.296875 L 4.4375 -3.59375 L 5.84375 -1.65625 C 6 -1.425781 6.15625 -1.234375 6.3125 -1.078125 C 6.46875 -0.921875 6.628906 -0.789062 6.796875 -0.6875 C 6.972656 -0.59375 7.160156 -0.519531 7.359375 -0.46875 L 7.34375 0.078125 C 7.21875 0.0976562 7.09375 0.113281 6.96875 0.125 C 6.851562 0.132812 6.734375 0.140625 6.609375 0.140625 Z M 6.609375 0.140625" transform="translate(134.317 231.097)"/></g></g></g><g><g><g><path d="M -0.015625 0 L -0.046875 -0.59375 L 0.5625 -0.78125 L 2.9375 -6.546875 L 3.921875 -7.09375 L 6.625 -0.78125 L 7.234375 -0.59375 L 7.203125 0 L 4.0625 0 L 4.015625 -0.59375 L 4.765625 -0.78125 L 4.140625 -2.28125 L 4.015625 -2.6875 L 2.84375 -5.453125 L 3.171875 -5.359375 L 2.203125 -2.71875 L 2.09375 -2.375 L 1.53125 -0.78125 L 2.28125 -0.59375 L 2.25 0 Z M 1.8125 -2 L 1.8125 -2.796875 C 1.96875 -2.785156 2.144531 -2.773438 2.34375 -2.765625 C 2.539062 -2.753906 2.800781 -2.75 3.125 -2.75 C 3.4375 -2.75 3.695312 -2.753906 3.90625 -2.765625 C 4.113281 -2.773438 4.289062 -2.785156 4.4375 -2.796875 L 4.4375 -2 C 4.289062 -2 4.113281 -2.003906 3.90625 -2.015625 C 3.695312 -2.023438 3.4375 -2.03125 3.125 -2.03125 C 2.8125 -2.03125 2.550781 -2.023438 2.34375 -2.015625 C 2.144531 -2.003906 1.96875 -2 1.8125 -2 Z M 1.8125 -2" transform="translate(142.949 231.097)"/></g></g></g><g><g><g><path d="M 6.078125 -2.171875 L 6.078125 -3.96875 C 6.078125 -4.34375 6.078125 -4.6875 6.078125 -5 C 6.078125 -5.3125 6.066406 -5.5625 6.046875 -5.75 C 6.035156 -5.945312 6.023438 -6.066406 6.015625 -6.109375 L 5.1875 -6.296875 L 5.234375 -6.875 L 7.71875 -6.875 L 7.765625 -6.296875 L 7.015625 -6.109375 C 7.003906 -6.066406 6.992188 -5.945312 6.984375 -5.75 C 6.972656 -5.5625 6.960938 -5.3125 6.953125 -5 C 6.941406 -4.6875 6.9375 -4.34375 6.9375 -3.96875 L 6.9375 -1.734375 C 6.9375 -1.367188 6.9375 -1.046875 6.9375 -0.765625 C 6.9375 -0.492188 6.9375 -0.21875 6.9375 0.0625 L 6.21875 0.0625 L 1.515625 -5.390625 L 2.140625 -5.390625 L 2.140625 -3.0625 C 2.140625 -2.632812 2.140625 -2.257812 2.140625 -1.9375 C 2.148438 -1.613281 2.160156 -1.351562 2.171875 -1.15625 C 2.179688 -0.957031 2.203125 -0.832031 2.234375 -0.78125 L 3.03125 -0.59375 L 3 0 L 0.46875 0 L 0.4375 -0.59375 L 1.171875 -0.78125 C 1.191406 -0.832031 1.207031 -0.960938 1.21875 -1.171875 C 1.226562 -1.378906 1.234375 -1.644531 1.234375 -1.96875 C 1.242188 -2.300781 1.25 -2.664062 1.25 -3.0625 L 1.25 -4.625 C 1.25 -4.832031 1.242188 -5.039062 1.234375 -5.25 C 1.222656 -5.457031 1.210938 -5.640625 1.203125 -5.796875 C 1.191406 -5.953125 1.179688 -6.054688 1.171875 -6.109375 L 0.4375 -6.296875 L 0.46875 -6.875 L 2.328125 -6.875 L 6.5625 -2.171875 Z M 6.078125 -2.171875" transform="translate(151.394 231.097)"/></g></g></g><g><g><g><path d="M 2.75 0.109375 C 2.414062 0.109375 2.050781 0.0625 1.65625 -0.03125 C 1.257812 -0.125 0.921875 -0.25 0.640625 -0.40625 L 0.59375 -2.140625 L 1.34375 -2.1875 L 1.734375 -0.984375 C 1.898438 -0.878906 2.085938 -0.796875 2.296875 -0.734375 C 2.503906 -0.679688 2.707031 -0.65625 2.90625 -0.65625 C 3.257812 -0.65625 3.523438 -0.726562 3.703125 -0.875 C 3.890625 -1.03125 3.984375 -1.234375 3.984375 -1.484375 C 3.984375 -1.753906 3.898438 -1.96875 3.734375 -2.125 C 3.578125 -2.289062 3.367188 -2.429688 3.109375 -2.546875 C 2.859375 -2.671875 2.585938 -2.789062 2.296875 -2.90625 C 2.003906 -3.019531 1.726562 -3.15625 1.46875 -3.3125 C 1.21875 -3.46875 1.007812 -3.671875 0.84375 -3.921875 C 0.6875 -4.171875 0.609375 -4.5 0.609375 -4.90625 C 0.609375 -5.320312 0.726562 -5.6875 0.96875 -6 C 1.207031 -6.320312 1.539062 -6.570312 1.96875 -6.75 C 2.40625 -6.925781 2.910156 -7.015625 3.484375 -7.015625 C 3.660156 -7.015625 3.851562 -7 4.0625 -6.96875 C 4.28125 -6.945312 4.484375 -6.910156 4.671875 -6.859375 C 4.867188 -6.804688 5.039062 -6.75 5.1875 -6.6875 L 5.328125 -4.984375 L 4.578125 -4.9375 L 4.203125 -6.078125 C 3.953125 -6.203125 3.671875 -6.265625 3.359375 -6.265625 C 3.046875 -6.265625 2.785156 -6.1875 2.578125 -6.03125 C 2.367188 -5.875 2.265625 -5.648438 2.265625 -5.359375 C 2.265625 -5.097656 2.34375 -4.882812 2.5 -4.71875 C 2.664062 -4.550781 2.878906 -4.40625 3.140625 -4.28125 C 3.410156 -4.164062 3.691406 -4.046875 3.984375 -3.921875 C 4.273438 -3.804688 4.546875 -3.664062 4.796875 -3.5 C 5.054688 -3.34375 5.269531 -3.144531 5.4375 -2.90625 C 5.601562 -2.664062 5.6875 -2.359375 5.6875 -1.984375 C 5.6875 -1.585938 5.5625 -1.226562 5.3125 -0.90625 C 5.070312 -0.59375 4.734375 -0.34375 4.296875 -0.15625 C 3.859375 0.0195312 3.34375 0.109375 2.75 0.109375 Z M 2.75 0.109375" transform="translate(160.881 231.097)"/></g></g></g><g><g><g><path d="M 0.5 0 L 0.453125 -0.59375 L 1.15625 -0.78125 C 1.175781 -0.8125 1.1875 -0.90625 1.1875 -1.0625 C 1.195312 -1.21875 1.207031 -1.421875 1.21875 -1.671875 C 1.226562 -1.921875 1.234375 -2.203125 1.234375 -2.515625 L 1.25 -4.40625 C 1.25 -4.707031 1.242188 -4.984375 1.234375 -5.234375 C 1.222656 -5.484375 1.210938 -5.6875 1.203125 -5.84375 C 1.203125 -6.007812 1.1875 -6.109375 1.15625 -6.140625 L 0.421875 -6.296875 L 0.453125 -6.875 L 3.4375 -6.875 C 4.394531 -6.875 5.109375 -6.703125 5.578125 -6.359375 C 6.054688 -6.015625 6.296875 -5.515625 6.296875 -4.859375 C 6.296875 -4.429688 6.179688 -4.046875 5.953125 -3.703125 C 5.722656 -3.359375 5.394531 -3.085938 4.96875 -2.890625 C 4.550781 -2.691406 4.039062 -2.59375 3.4375 -2.59375 C 3.300781 -2.59375 3.164062 -2.597656 3.03125 -2.609375 C 2.90625 -2.628906 2.78125 -2.648438 2.65625 -2.671875 L 2.65625 -3.484375 C 2.75 -3.441406 2.859375 -3.40625 2.984375 -3.375 C 3.117188 -3.351562 3.269531 -3.34375 3.4375 -3.34375 C 3.8125 -3.34375 4.097656 -3.457031 4.296875 -3.6875 C 4.503906 -3.925781 4.609375 -4.269531 4.609375 -4.71875 C 4.609375 -5.238281 4.476562 -5.617188 4.21875 -5.859375 C 3.957031 -6.097656 3.609375 -6.21875 3.171875 -6.21875 L 2.84375 -6.21875 C 2.84375 -6.15625 2.835938 -6.050781 2.828125 -5.90625 C 2.828125 -5.757812 2.820312 -5.5625 2.8125 -5.3125 C 2.8125 -5.070312 2.8125 -4.769531 2.8125 -4.40625 L 2.828125 -2.515625 C 2.828125 -2.203125 2.832031 -1.921875 2.84375 -1.671875 C 2.851562 -1.421875 2.863281 -1.21875 2.875 -1.0625 C 2.882812 -0.90625 2.894531 -0.8125 2.90625 -0.78125 L 3.859375 -0.609375 L 3.828125 0 Z M 0.5 0" transform="translate(168.2 231.097)"/></g></g></g><g><g><g><path d="M 4.21875 0.109375 C 3.5 0.109375 2.859375 -0.0351562 2.296875 -0.328125 C 1.742188 -0.628906 1.304688 -1.039062 0.984375 -1.5625 C 0.671875 -2.082031 0.515625 -2.679688 0.515625 -3.359375 C 0.515625 -4.054688 0.671875 -4.675781 0.984375 -5.21875 C 1.304688 -5.769531 1.75 -6.203125 2.3125 -6.515625 C 2.875 -6.828125 3.515625 -6.984375 4.234375 -6.984375 C 4.929688 -6.984375 5.546875 -6.835938 6.078125 -6.546875 C 6.609375 -6.253906 7.023438 -5.847656 7.328125 -5.328125 C 7.628906 -4.816406 7.78125 -4.21875 7.78125 -3.53125 C 7.78125 -2.925781 7.664062 -2.394531 7.4375 -1.9375 C 7.21875 -1.488281 6.929688 -1.113281 6.578125 -0.8125 C 6.222656 -0.507812 5.835938 -0.28125 5.421875 -0.125 C 5.015625 0.03125 4.613281 0.109375 4.21875 0.109375 Z M 4.3125 -0.78125 C 4.675781 -0.78125 4.976562 -0.875 5.21875 -1.0625 C 5.457031 -1.25 5.632812 -1.523438 5.75 -1.890625 C 5.875 -2.265625 5.9375 -2.710938 5.9375 -3.234375 C 5.9375 -3.835938 5.859375 -4.359375 5.703125 -4.796875 C 5.546875 -5.242188 5.332031 -5.59375 5.0625 -5.84375 C 4.789062 -6.09375 4.46875 -6.21875 4.09375 -6.21875 C 3.550781 -6.21875 3.128906 -5.992188 2.828125 -5.546875 C 2.523438 -5.097656 2.375 -4.476562 2.375 -3.6875 C 2.375 -3.113281 2.457031 -2.609375 2.625 -2.171875 C 2.789062 -1.734375 3.015625 -1.390625 3.296875 -1.140625 C 3.585938 -0.898438 3.925781 -0.78125 4.3125 -0.78125 Z M 4.3125 -0.78125" transform="translate(176.177 231.097)"/></g></g></g><g><g><g><path d="M 0.5 0 L 0.453125 -0.59375 L 1.203125 -0.78125 C 1.203125 -0.832031 1.203125 -0.921875 1.203125 -1.046875 C 1.210938 -1.179688 1.21875 -1.335938 1.21875 -1.515625 C 1.226562 -1.703125 1.234375 -1.890625 1.234375 -2.078125 C 1.242188 -2.265625 1.25 -2.429688 1.25 -2.578125 L 1.25 -4.296875 C 1.25 -4.617188 1.242188 -4.910156 1.234375 -5.171875 C 1.222656 -5.429688 1.210938 -5.644531 1.203125 -5.8125 C 1.191406 -5.976562 1.175781 -6.078125 1.15625 -6.109375 L 0.40625 -6.296875 L 0.453125 -6.875 L 3.484375 -6.875 C 4.378906 -6.875 5.039062 -6.734375 5.46875 -6.453125 C 5.90625 -6.171875 6.125 -5.71875 6.125 -5.09375 C 6.125 -4.71875 6.003906 -4.378906 5.765625 -4.078125 C 5.535156 -3.773438 5.210938 -3.535156 4.796875 -3.359375 C 4.390625 -3.191406 3.921875 -3.109375 3.390625 -3.109375 L 2.625 -3.109375 L 2.625 -3.78125 L 3.15625 -3.78125 C 3.539062 -3.78125 3.851562 -3.898438 4.09375 -4.140625 C 4.332031 -4.378906 4.453125 -4.695312 4.453125 -5.09375 C 4.453125 -5.46875 4.351562 -5.75 4.15625 -5.9375 C 3.957031 -6.125 3.664062 -6.21875 3.28125 -6.21875 L 2.84375 -6.21875 C 2.832031 -6.195312 2.820312 -6.128906 2.8125 -6.015625 C 2.8125 -5.910156 2.8125 -5.773438 2.8125 -5.609375 C 2.8125 -5.441406 2.8125 -5.253906 2.8125 -5.046875 C 2.8125 -4.835938 2.8125 -4.617188 2.8125 -4.390625 L 2.8125 -2.578125 C 2.8125 -2.378906 2.8125 -2.15625 2.8125 -1.90625 C 2.820312 -1.664062 2.828125 -1.441406 2.828125 -1.234375 C 2.835938 -1.023438 2.847656 -0.875 2.859375 -0.78125 L 3.515625 -0.59375 L 3.484375 0 Z M 6.609375 0.140625 C 6.171875 0.140625 5.78125 0.0703125 5.4375 -0.0625 C 5.101562 -0.207031 4.800781 -0.425781 4.53125 -0.71875 C 4.257812 -1.019531 4.019531 -1.398438 3.8125 -1.859375 L 3.140625 -3.296875 L 4.4375 -3.59375 L 5.84375 -1.65625 C 6 -1.425781 6.15625 -1.234375 6.3125 -1.078125 C 6.46875 -0.921875 6.628906 -0.789062 6.796875 -0.6875 C 6.972656 -0.59375 7.160156 -0.519531 7.359375 -0.46875 L 7.34375 0.078125 C 7.21875 0.0976562 7.09375 0.113281 6.96875 0.125 C 6.851562 0.132812 6.734375 0.140625 6.609375 0.140625 Z M 6.609375 0.140625" transform="translate(185.782 231.097)"/></g></g></g><g><g><g><path d="M 6.71875 -6.9375 L 6.984375 -4.859375 L 6.265625 -4.8125 L 5.796875 -6.15625 C 5.710938 -6.164062 5.628906 -6.171875 5.546875 -6.171875 C 5.460938 -6.179688 5.367188 -6.1875 5.265625 -6.1875 L 4.859375 -6.1875 C 4.796875 -6.1875 4.71875 -6.1875 4.625 -6.1875 C 4.53125 -6.1875 4.460938 -6.179688 4.421875 -6.171875 C 4.421875 -6.117188 4.414062 -5.972656 4.40625 -5.734375 C 4.40625 -5.492188 4.398438 -5.203125 4.390625 -4.859375 C 4.390625 -4.523438 4.390625 -4.1875 4.390625 -3.84375 L 4.390625 -2.75 C 4.390625 -2.3125 4.394531 -1.914062 4.40625 -1.5625 C 4.414062 -1.21875 4.425781 -0.957031 4.4375 -0.78125 L 5.453125 -0.609375 L 5.421875 0 L 1.765625 0 L 1.734375 -0.609375 L 2.75 -0.78125 C 2.757812 -0.957031 2.769531 -1.21875 2.78125 -1.5625 C 2.789062 -1.914062 2.796875 -2.3125 2.796875 -2.75 L 2.796875 -3.84375 C 2.796875 -4.1875 2.789062 -4.523438 2.78125 -4.859375 C 2.78125 -5.203125 2.78125 -5.492188 2.78125 -5.734375 C 2.78125 -5.972656 2.773438 -6.117188 2.765625 -6.171875 C 2.722656 -6.179688 2.65625 -6.1875 2.5625 -6.1875 C 2.46875 -6.1875 2.390625 -6.1875 2.328125 -6.1875 L 1.90625 -6.1875 C 1.8125 -6.1875 1.71875 -6.179688 1.625 -6.171875 C 1.53125 -6.171875 1.441406 -6.164062 1.359375 -6.15625 L 0.921875 -4.78125 L 0.1875 -4.859375 L 0.4375 -6.9375 C 0.507812 -6.9375 0.617188 -6.929688 0.765625 -6.921875 C 0.910156 -6.921875 1.0625 -6.914062 1.21875 -6.90625 C 1.382812 -6.894531 1.539062 -6.882812 1.6875 -6.875 C 1.84375 -6.875 1.976562 -6.875 2.09375 -6.875 L 5.0625 -6.875 C 5.175781 -6.875 5.304688 -6.875 5.453125 -6.875 C 5.597656 -6.882812 5.753906 -6.894531 5.921875 -6.90625 C 6.085938 -6.914062 6.238281 -6.921875 6.375 -6.921875 C 6.519531 -6.929688 6.632812 -6.9375 6.71875 -6.9375 Z M 6.71875 -6.9375" transform="translate(194.414 231.097)"/></g></g></g><g><g><g><path d="M -0.015625 0 L -0.046875 -0.59375 L 0.5625 -0.78125 L 2.9375 -6.546875 L 3.921875 -7.09375 L 6.625 -0.78125 L 7.234375 -0.59375 L 7.203125 0 L 4.0625 0 L 4.015625 -0.59375 L 4.765625 -0.78125 L 4.140625 -2.28125 L 4.015625 -2.6875 L 2.84375 -5.453125 L 3.171875 -5.359375 L 2.203125 -2.71875 L 2.09375 -2.375 L 1.53125 -0.78125 L 2.28125 -0.59375 L 2.25 0 Z M 1.8125 -2 L 1.8125 -2.796875 C 1.96875 -2.785156 2.144531 -2.773438 2.34375 -2.765625 C 2.539062 -2.753906 2.800781 -2.75 3.125 -2.75 C 3.4375 -2.75 3.695312 -2.753906 3.90625 -2.765625 C 4.113281 -2.773438 4.289062 -2.785156 4.4375 -2.796875 L 4.4375 -2 C 4.289062 -2 4.113281 -2.003906 3.90625 -2.015625 C 3.695312 -2.023438 3.4375 -2.03125 3.125 -2.03125 C 2.8125 -2.03125 2.550781 -2.023438 2.34375 -2.015625 C 2.144531 -2.003906 1.96875 -2 1.8125 -2 Z M 1.8125 -2" transform="translate(202.906 231.097)"/></g></g></g><g><g><g><path d="M 6.71875 -6.9375 L 6.984375 -4.859375 L 6.265625 -4.8125 L 5.796875 -6.15625 C 5.710938 -6.164062 5.628906 -6.171875 5.546875 -6.171875 C 5.460938 -6.179688 5.367188 -6.1875 5.265625 -6.1875 L 4.859375 -6.1875 C 4.796875 -6.1875 4.71875 -6.1875 4.625 -6.1875 C 4.53125 -6.1875 4.460938 -6.179688 4.421875 -6.171875 C 4.421875 -6.117188 4.414062 -5.972656 4.40625 -5.734375 C 4.40625 -5.492188 4.398438 -5.203125 4.390625 -4.859375 C 4.390625 -4.523438 4.390625 -4.1875 4.390625 -3.84375 L 4.390625 -2.75 C 4.390625 -2.3125 4.394531 -1.914062 4.40625 -1.5625 C 4.414062 -1.21875 4.425781 -0.957031 4.4375 -0.78125 L 5.453125 -0.609375 L 5.421875 0 L 1.765625 0 L 1.734375 -0.609375 L 2.75 -0.78125 C 2.757812 -0.957031 2.769531 -1.21875 2.78125 -1.5625 C 2.789062 -1.914062 2.796875 -2.3125 2.796875 -2.75 L 2.796875 -3.84375 C 2.796875 -4.1875 2.789062 -4.523438 2.78125 -4.859375 C 2.78125 -5.203125 2.78125 -5.492188 2.78125 -5.734375 C 2.78125 -5.972656 2.773438 -6.117188 2.765625 -6.171875 C 2.722656 -6.179688 2.65625 -6.1875 2.5625 -6.1875 C 2.46875 -6.1875 2.390625 -6.1875 2.328125 -6.1875 L 1.90625 -6.1875 C 1.8125 -6.1875 1.71875 -6.179688 1.625 -6.171875 C 1.53125 -6.171875 1.441406 -6.164062 1.359375 -6.15625 L 0.921875 -4.78125 L 0.1875 -4.859375 L 0.4375 -6.9375 C 0.507812 -6.9375 0.617188 -6.929688 0.765625 -6.921875 C 0.910156 -6.921875 1.0625 -6.914062 1.21875 -6.90625 C 1.382812 -6.894531 1.539062 -6.882812 1.6875 -6.875 C 1.84375 -6.875 1.976562 -6.875 2.09375 -6.875 L 5.0625 -6.875 C 5.175781 -6.875 5.304688 -6.875 5.453125 -6.875 C 5.597656 -6.882812 5.753906 -6.894531 5.921875 -6.90625 C 6.085938 -6.914062 6.238281 -6.921875 6.375 -6.921875 C 6.519531 -6.929688 6.632812 -6.9375 6.71875 -6.9375 Z M 6.71875 -6.9375" transform="translate(211.35 231.097)"/></g></g></g><g><g><g><path d="M 0.453125 0 L 0.40625 -0.59375 L 1.15625 -0.78125 C 1.164062 -0.8125 1.175781 -0.910156 1.1875 -1.078125 C 1.195312 -1.242188 1.207031 -1.457031 1.21875 -1.71875 C 1.226562 -1.976562 1.234375 -2.265625 1.234375 -2.578125 L 1.234375 -4.296875 C 1.234375 -4.617188 1.226562 -4.910156 1.21875 -5.171875 C 1.207031 -5.429688 1.195312 -5.644531 1.1875 -5.8125 C 1.175781 -5.988281 1.164062 -6.085938 1.15625 -6.109375 L 0.40625 -6.296875 L 0.453125 -6.875 L 3.59375 -6.875 L 3.640625 -6.296875 L 2.890625 -6.109375 C 2.867188 -6.078125 2.851562 -5.976562 2.84375 -5.8125 C 2.832031 -5.644531 2.820312 -5.425781 2.8125 -5.15625 C 2.8125 -4.894531 2.8125 -4.609375 2.8125 -4.296875 L 2.8125 -2.578125 C 2.8125 -2.273438 2.8125 -1.992188 2.8125 -1.734375 C 2.820312 -1.472656 2.832031 -1.257812 2.84375 -1.09375 C 2.851562 -0.925781 2.867188 -0.820312 2.890625 -0.78125 L 3.640625 -0.59375 L 3.59375 0 Z M 0.453125 0" transform="translate(219.842 231.097)"/></g></g></g><g><g><g><path d="M 4.21875 0.109375 C 3.5 0.109375 2.859375 -0.0351562 2.296875 -0.328125 C 1.742188 -0.628906 1.304688 -1.039062 0.984375 -1.5625 C 0.671875 -2.082031 0.515625 -2.679688 0.515625 -3.359375 C 0.515625 -4.054688 0.671875 -4.675781 0.984375 -5.21875 C 1.304688 -5.769531 1.75 -6.203125 2.3125 -6.515625 C 2.875 -6.828125 3.515625 -6.984375 4.234375 -6.984375 C 4.929688 -6.984375 5.546875 -6.835938 6.078125 -6.546875 C 6.609375 -6.253906 7.023438 -5.847656 7.328125 -5.328125 C 7.628906 -4.816406 7.78125 -4.21875 7.78125 -3.53125 C 7.78125 -2.925781 7.664062 -2.394531 7.4375 -1.9375 C 7.21875 -1.488281 6.929688 -1.113281 6.578125 -0.8125 C 6.222656 -0.507812 5.835938 -0.28125 5.421875 -0.125 C 5.015625 0.03125 4.613281 0.109375 4.21875 0.109375 Z M 4.3125 -0.78125 C 4.675781 -0.78125 4.976562 -0.875 5.21875 -1.0625 C 5.457031 -1.25 5.632812 -1.523438 5.75 -1.890625 C 5.875 -2.265625 5.9375 -2.710938 5.9375 -3.234375 C 5.9375 -3.835938 5.859375 -4.359375 5.703125 -4.796875 C 5.546875 -5.242188 5.332031 -5.59375 5.0625 -5.84375 C 4.789062 -6.09375 4.46875 -6.21875 4.09375 -6.21875 C 3.550781 -6.21875 3.128906 -5.992188 2.828125 -5.546875 C 2.523438 -5.097656 2.375 -4.476562 2.375 -3.6875 C 2.375 -3.113281 2.457031 -2.609375 2.625 -2.171875 C 2.789062 -1.734375 3.015625 -1.390625 3.296875 -1.140625 C 3.585938 -0.898438 3.925781 -0.78125 4.3125 -0.78125 Z M 4.3125 -0.78125" transform="translate(225.193 231.097)"/></g></g></g><g><g><g><path d="M 6.078125 -2.171875 L 6.078125 -3.96875 C 6.078125 -4.34375 6.078125 -4.6875 6.078125 -5 C 6.078125 -5.3125 6.066406 -5.5625 6.046875 -5.75 C 6.035156 -5.945312 6.023438 -6.066406 6.015625 -6.109375 L 5.1875 -6.296875 L 5.234375 -6.875 L 7.71875 -6.875 L 7.765625 -6.296875 L 7.015625 -6.109375 C 7.003906 -6.066406 6.992188 -5.945312 6.984375 -5.75 C 6.972656 -5.5625 6.960938 -5.3125 6.953125 -5 C 6.941406 -4.6875 6.9375 -4.34375 6.9375 -3.96875 L 6.9375 -1.734375 C 6.9375 -1.367188 6.9375 -1.046875 6.9375 -0.765625 C 6.9375 -0.492188 6.9375 -0.21875 6.9375 0.0625 L 6.21875 0.0625 L 1.515625 -5.390625 L 2.140625 -5.390625 L 2.140625 -3.0625 C 2.140625 -2.632812 2.140625 -2.257812 2.140625 -1.9375 C 2.148438 -1.613281 2.160156 -1.351562 2.171875 -1.15625 C 2.179688 -0.957031 2.203125 -0.832031 2.234375 -0.78125 L 3.03125 -0.59375 L 3 0 L 0.46875 0 L 0.4375 -0.59375 L 1.171875 -0.78125 C 1.191406 -0.832031 1.207031 -0.960938 1.21875 -1.171875 C 1.226562 -1.378906 1.234375 -1.644531 1.234375 -1.96875 C 1.242188 -2.300781 1.25 -2.664062 1.25 -3.0625 L 1.25 -4.625 C 1.25 -4.832031 1.242188 -5.039062 1.234375 -5.25 C 1.222656 -5.457031 1.210938 -5.640625 1.203125 -5.796875 C 1.191406 -5.953125 1.179688 -6.054688 1.171875 -6.109375 L 0.4375 -6.296875 L 0.46875 -6.875 L 2.328125 -6.875 L 6.5625 -2.171875 Z M 6.078125 -2.171875" transform="translate(234.798 231.097)"/></g></g></g></svg>