<svg xmlns="http://www.w3.org/2000/svg" viewBox="0 0 483.84 205.3"><g data-name="Layer 2"><g data-name="Layer 1"><path fill="#a6d1e2" d="M476.45,44.09v148.6H33.85A25.12,25.12,0,0,1,8.74,167.57V148.63A104.48,104.48,0,0,1,113.28,44.09Z"/><circle cx="98.54" cy="180.03" r="21.37" fill="#213042"/><circle cx="151.8" cy="180.03" r="21.37" fill="#213042"/><circle cx="335.05" cy="180.03" r="21.37" fill="#213042"/><circle cx="388.32" cy="180.03" r="21.37" fill="#213042"/><rect width="82.21" height="11" x="110" y="26.4" fill="#425f87"/><rect width="82.21" height="11" x="340.06" y="26.4" fill="#425f87"/><path fill="#d3dfe5" d="M476,31.43V180H32.51A25.12,25.12,0,0,1,7.39,154.92V136A104.48,104.48,0,0,1,111.94,31.43Z"/><rect width="378.35" height="11.16" x="88.54" y="127.79" fill="#fecb5c"/><rect width="103.46" height="51.73" x="97.67" y="55.77" fill="#77bde6" rx="18.25"/><rect width="103.46" height="51.73" x="329.44" y="55.77" fill="#77bde6" rx="18.25"/><path fill="#77bde6" d="M44.93,117.38l-36.06,1a104.64,104.64,0,0,1,68.22-81l.08,46.78A33.17,33.17,0,0,1,44.93,117.38Z"/><rect width="86.64" height="142.13" x="221.42" y="34.66" fill="none" stroke="#adadad" stroke-miterlimit="10" rx=".23"/><line x1="264.74" x2="264.74" y1="34.66" y2="176.8" fill="none" stroke="#adadad" stroke-miterlimit="10"/><rect width="29.05" height="73.17" x="228.53" y="39.66" fill="#77bde6" rx="14.04"/><rect width="29.05" height="73.17" x="272.55" y="39.66" fill="#77bde6" rx="14.04"/><line x1="103.4" x2="119.91" y1="84.55" y2="60.62" fill="none" stroke="#fff" stroke-miterlimit="10"/><line x1="111.65" x2="128.16" y1="92.23" y2="68.29" fill="none" stroke="#fff" stroke-miterlimit="10"/><line x1="163.86" x2="180.37" y1="92.68" y2="68.75" fill="none" stroke="#fff" stroke-miterlimit="10"/><line x1="172.12" x2="188.62" y1="100.36" y2="76.42" fill="none" stroke="#fff" stroke-miterlimit="10"/><line x1="335.05" x2="351.56" y1="84.55" y2="60.62" fill="none" stroke="#fff" stroke-miterlimit="10"/><line x1="343.31" x2="359.81" y1="92.23" y2="68.29" fill="none" stroke="#fff" stroke-miterlimit="10"/><line x1="395.52" x2="412.03" y1="92.68" y2="68.75" fill="none" stroke="#fff" stroke-miterlimit="10"/><line x1="403.77" x2="420.28" y1="100.36" y2="76.42" fill="none" stroke="#fff" stroke-miterlimit="10"/><line x1="32.78" x2="49.29" y1="92.73" y2="68.8" fill="none" stroke="#fff" stroke-miterlimit="10"/><line x1="36.84" x2="53.35" y1="105.02" y2="81.08" fill="none" stroke="#fff" stroke-miterlimit="10"/><line x1="230.21" x2="246.72" y1="72.58" y2="48.65" fill="none" stroke="#fff" stroke-miterlimit="10"/><line x1="238.47" x2="254.97" y1="80.26" y2="56.32" fill="none" stroke="#fff" stroke-miterlimit="10"/><line x1="274.69" x2="291.2" y1="72.58" y2="48.65" fill="none" stroke="#fff" stroke-miterlimit="10"/><line x1="282.94" x2="299.45" y1="80.26" y2="56.32" fill="none" stroke="#fff" stroke-miterlimit="10"/><path fill="#239ecc" d="M387.17,186.09l-8.45,3-8.1-16.2L360.5,156.72l-2-5.06-6.07-20.25-5.07-20.25-4.05-23.29,18.23-1,.76,3a32,32,0,0,1,.86,10.27h0a70,70,0,0,0,.59,15.85l1.53,10.11A80.33,80.33,0,0,0,375.52,155l1.42,2.42c2.53,4.28,3.41,8,5.11,12.62Z"/><path fill="#1170b5" d="M361.51,86.86l-18.23,1,4.05,23.29,2.17,8.67,5.92-16.77C359.26,100.5,361.51,86.86,361.51,86.86Z"/><rect width="9.02" height="111" x="404.77" y="89" fill="none" stroke="#edeff4" stroke-miterlimit="10" transform="rotate(-35.12 409.33 144.499)"/><path fill="#d89f80" d="M374,91.1a5.72,5.72,0,0,0,1.53,3.07,16.34,16.34,0,0,1,2.13,2.11c5.26,6.68,4.05,10.37,2.88,12a.69.69,0,0,1-1.16-.24c-.86-2.68-4.22-6.67-5.38-7.14s-.85,2.24-.72,3.25a.51.51,0,0,1-.46.59,2,2,0,0,1-1.37-.45,3.89,3.89,0,0,1-1.7-3.21l.07-8.1a4,4,0,0,0-.09-.84,2.38,2.38,0,0,0,1.65.88,2.29,2.29,0,0,0,2.6-1.73A.88.88,0,0,0,374,91.1Z"/><path fill="#b5826b" d="M320.47,82.23a5.78,5.78,0,0,1-2.32,2.52,15.22,15.22,0,0,0-2.64,1.43c-6.92,4.94-6.78,8.83-6.11,10.69a.69.69,0,0,0,1.19.09c1.57-2.33,5.91-5.23,7.16-5.36s.19,2.39-.23,3.32a.53.53,0,0,0,.29.71,2.06,2.06,0,0,0,1.44,0A3.91,3.91,0,0,0,321.77,93l2.2-7.8a3.77,3.77,0,0,1,.32-.78,2.35,2.35,0,0,1-1.83.38,2.29,2.29,0,0,1-2-2.38Z"/><path fill="#239ecc" d="M333,161.26l-15,30.9-8.5-3.08L338.73,84.15l22.78,2.71-.41,4.87a15.11,15.11,0,0,1-6.68,11.33h0l-15.8,44.76A128.36,128.36,0,0,1,333,161.26Z"/><path fill="#082aa3" d="M336.28,61.71l1,11.92,1-.95-1-22.28-.91,1.68A63.17,63.17,0,0,0,336.28,61.71Z"/><polygon fill="#448c4a" points="323.62 86.86 319.22 83.64 337.21 50.41 338.22 72.68 323.62 86.86"/><path fill="#4da258" d="M360.68,88c-2.2.39-8.21,1.35-11.55.76l-9.53-2.56a2,2,0,0,1-1.49-1.8l-1.83-22.71A62,62,0,0,1,340.52,34h0a4.68,4.68,0,0,1,2.56-2.59L351.27,28a4.48,4.48,0,0,1,4.1.33h0a13.06,13.06,0,0,1,6.14,11.08V87A1,1,0,0,1,360.68,88Z"/><path fill="#448c4a" d="M361.51,44.29V39.42c0-.25,0-.49,0-.73l-2-4.84-6.07,7.44,6.84,23.29,1.26,4.71Z"/><path fill="#d89f80" d="M347.35,35.81h0a4.43,4.43,0,0,1-4.43-4.43V17.58h7.68l.75,13.55C351.49,33.67,349.89,35.81,347.35,35.81Z"/><path fill="#b5826b" d="M348.7,25.65A2.33,2.33,0,0,0,351,23.92l-.35-6.34h-7.68v8.07Z"/><path fill="#4da258" d="M374.41,84.66l.26,8.27-5.06,2-8.1-30.38-8.1-23.29,5.65-9.11,3.8,6.76A109.66,109.66,0,0,1,374.41,84.66Z"/><path fill="#d89f80" d="M336.19,5.57H351a0,0,0,0,1,0,0V20.92a3.89,3.89,0,0,1-3.89,3.89h0a11,11,0,0,1-11-11V5.57A0,0,0,0,1,336.19,5.57Z"/><path fill="#300" d="M350.56,13.16h-7.91a7.5,7.5,0,0,1-4.74-1.68h0a11.52,11.52,0,0,1-4.25-8.93V0l2.28,1.2a4.18,4.18,0,0,0,3.25.27l3.05-1A8.63,8.63,0,0,1,345,0h3.22a5.69,5.69,0,0,1,5.69,5.69v.89l-.65,4.26A2.73,2.73,0,0,1,350.56,13.16Z"/><path fill="#edeff4" d="M309.86 188.8c0-.57-5.45 6.1-10.74 7.36-3.39.8-6.14 1.46-7.44 2.39-.4.29-.19 3.88.34 4l22.43-.66c.66.1 2.48.16 3.2.2 1 0 .79-1.69.86-2.65.09-1.21.18-.59.15-1.34-.05-1.45-.8-6.26-.8-6.26zM378.86 188.8a16.62 16.62 0 01-6.51 8.59c-3 1.83-5.37 1.32-6.31 2.61-.3.4.08 2.89.61 2.8l22.35.11c.66-.12 1.66 0 2.14-.51 1.65-1.8-4.28-16.6-4.28-16.6z"/><rect width="31.67" height="82" x="414.57" y="116.59" fill="#1170b5" rx="8" transform="rotate(-35.12 430.411 157.584)"/><circle cx="443.38" cy="200.3" r="3.5"/><circle cx="443.38" cy="200.3" r="2" fill="#b4b4b5"/><polygon fill="#300" points="159.86 70.8 128.86 73.8 134.86 15.8 153.86 15.8 159.86 70.8"/><path fill="#b5826b" d="M145.64,69.85l12.92,24.93a3,3,0,0,1,.3.92l.9,5.62a2.63,2.63,0,0,0,1.4,2,1.09,1.09,0,0,0,.88.12.4.4,0,0,0,.22-.48c-.2-.68-.67-2.5.06-2.35s3.26,2.45,4.09,4.18a.41.41,0,0,0,.74,0c.53-1.27.84-4-3.13-7.87a8.83,8.83,0,0,0-1.55-1.16c-.42-.28-1.08-1-1.67-3.08-.55-1.86-4.34-12.27-5.5-16-3.48-11.29-9.85-18.54-9-8.54Z"/><path fill="#239ecc" d="M151.05,190.91l2.12-29,3.28-32.78L157,106a66,66,0,0,0-1.1-13.75l-1.41-13.33-23.64,2.95,11.93,48.45a25,25,0,0,1,.7,4.12l.48,5.49a17.1,17.1,0,0,1-.72,6.59h0a31.22,31.22,0,0,0-1.07,14.27l4.39,30.52Z"/><path fill="#1170b5" d="M143.28,86.78l10-6.71h-7.88L132,81.74c-.31.29-.61.58-.9.88l8.12,33,5.16-17.56c1.24-2.8-4.05-2.92-2.18-5.35C144.61,89.58,141.59,90.35,143.28,86.78Z"/><path fill="#239ecc" d="M104.32,188.83l4.47.4,16.32-45.09c1.46-4.22,3.09-8.39,4.89-12.47l13.73-31.12a38.12,38.12,0,0,1,4.68-7.87h0c2.45-3.16,1.56-6.12,3.27-9.74.33-.69,2.75-1.91,2.86-2.87H133a23.72,23.72,0,0,0-9.59,16.2l-2.21,21.2-2.86,15.74a52.1,52.1,0,0,1-4,12.72h0a33.46,33.46,0,0,0-4.81,12.36Z"/><path fill="#ada43a" d="M98.36,142.3c.66-7.36,1.63-14.69,3-22q1-5.46,2.48-10.85a50.88,50.88,0,0,1,1.79-5.35,21,21,0,0,1,1.28-2.61,9.53,9.53,0,0,1,.92-1.28,4.87,4.87,0,0,1,.66-.6l.41-.27.52-.2a2.47,2.47,0,0,1,2.17.48,6.51,6.51,0,0,1,.64.65l.47.67a14.41,14.41,0,0,1,1.22,2.71,43.25,43.25,0,0,1,1.44,5.47c.72,3.66,1.25,7.33,1.63,11,.81,7.36,1.19,14.75,1.35,22.13-.94-7.32-1.84-14.65-2.89-21.93-.57-3.63-1.13-7.26-1.94-10.82a46.44,46.44,0,0,0-1.43-5.21A13.32,13.32,0,0,0,111,102l-.32-.46c-.12-.12-.23-.24-.34-.33a.49.49,0,0,0-.41-.13,3.47,3.47,0,0,0-1.35,1.45,17.57,17.57,0,0,0-1.16,2.34c-.7,1.65-1.25,3.39-1.79,5.13-1.07,3.49-1.92,7.06-2.77,10.64C101.27,127.83,99.79,135.06,98.36,142.3Z"/><path fill="#d89f80" d="M111,98.74a9.78,9.78,0,0,1,1.37-1.36s.38-1.56.6-2.36l6.65-24a3.43,3.43,0,0,1,6.72.94,3.38,3.38,0,0,1-.14.93L116.07,97a5.66,5.66,0,0,0-.43,2.47l.16,3.11a2.68,2.68,0,0,1-1.12,2.15,1.11,1.11,0,0,1-.86.24.4.4,0,0,1-.28-.45c.1-.7.32-2.57-.38-2.32s-2.9,2.87-3.49,4.7a.4.4,0,0,1-.73.1C108.25,105.78,107.57,103.12,111,98.74Z"/><ellipse cx="138.68" cy="23.35" fill="#d89f80" rx="2.03" ry="3.05"/><path fill="#e0313e" d="M132.58,80.07h22.07s-.21-7.2.39-9.29L156.12,67a24.5,24.5,0,0,0,.68-3.17l.21-1.45a8.5,8.5,0,0,0-.82-5l-1.52-3a6.84,6.84,0,0,1-.65-4l.2-1.42a9.19,9.19,0,0,0-.38-4.26l-.13-.39a4.93,4.93,0,0,0-3.22-3.16l-4.09-1.28-6.91-.4h-3.8a11.75,11.75,0,0,0-11.52,9.43L119,72.54l6.5,2c1.63-3.26,5.9-18.91,5.9-18.91l.53,1.16a35.58,35.58,0,0,1,2.72,8.6h0l1,5.41a9.88,9.88,0,0,1-1.14,6.65Z"/><path fill="#d89f80" d="M146.4,39.81h0V26.6h-7.11V40.25a3.56,3.56,0,0,0,3.29,3.55H143a3.68,3.68,0,0,0,.58-.08,3.54,3.54,0,0,0,2.77-3.09,2.36,2.36,0,0,0,0-.38l0-.43Z"/><path fill="#b5826b" d="M139.29,26.6h7.11v8.72l-.4,0c-3,0-5.58-2.61-6.71-6.35Z"/><ellipse cx="146.4" cy="23.96" fill="#d89f80" rx="7.32" ry="10.57"/><path fill="#300" d="M134.61,15.21c0,4.16,4.13,8.16,8.95,6.31s9.51-4.79,10.16-6.51c1.47-3.89-4.59-7.32-9.76-7.32S134.61,11.06,134.61,15.21Z"/><path fill="#edeff4" d="M150.94 190.7c.61-.15 2 3.4 6.19 5.18a13.8 13.8 0 012.69 1.3c1.56 1.17 3.63 1.91 4 3.83.08.41.09.7 0 .72l-17.05.22c-1.17.22-2.15-1.89-1.78-3l.7-2.86c.29-.9.94-4.92.94-4.92zM108.49 188.92c.63 0 1.44 3.69 5.22 6.16a13.07 13.07 0 012.43 1.73c1.34 1.42 3.25 2.5 3.28 4.46 0 .41 0 .7-.15.7l-16.85-2.67c-1.19 0-1.79-2.23-1.24-3.28l1.17-2.7c.44-.84 2.17-4.68 2.17-4.68z"/><path fill="#e0313e" d="M76.86,134.8h65a0,0,0,0,1,0,0v25.62a13.38,13.38,0,0,1-13.38,13.38H90.24a13.38,13.38,0,0,1-13.38-13.38V134.8A0,0,0,0,1,76.86,134.8Z"/><ellipse cx="152.83" cy="16.86" fill="#300" rx="2" ry="4.5" transform="rotate(-11.75 152.85 16.858)"/><line x2="483.84" y1="203.3" y2="203.8" fill="none" stroke="#f43b3b" stroke-miterlimit="10" stroke-width="3"/></g></g></svg>