<svg xmlns="http://www.w3.org/2000/svg" width="75" viewBox="0 0 75 75" height="75" version="1.0"><defs><clipPath id="a"><path d="M 0 13.089844 L 75 13.089844 L 75 62.53125 L 0 62.53125 Z M 0 13.089844"/></clipPath></defs><g clip-path="url(#a)"><path fill="#141515" d="M 28.246094 42.695312 L 28.246094 41.15625 L 25.519531 40.792969 L 25.519531 43.238281 Z M 31.96875 41.515625 L 31.96875 38.617188 L 35.328125 38.710938 L 35.328125 39.796875 C 34.054688 39.980469 32.878906 40.25 31.96875 41.515625 Z M 36.691406 38.710938 L 36.691406 39.707031 L 38.871094 39.617188 L 38.871094 38.800781 Z M 45.410156 43.511719 C 45.410156 42.96875 45.5 42.511719 45.589844 41.96875 L 37.234375 43.78125 C 36.964844 44.324219 36.871094 44.960938 36.785156 45.683594 Z M 23.613281 32.910156 C 20.164062 31.644531 20.710938 25.847656 23.523438 24.941406 C 23.523438 24.941406 23.523438 24.941406 23.613281 24.941406 C 23.613281 25.03125 22.980469 25.757812 22.800781 26.121094 C 21.617188 28.472656 22.160156 30.921875 23.613281 32.910156 Z M 19.800781 29.109375 C 19.890625 31.914062 20.070312 32.097656 21.617188 34.179688 C 20.800781 34.632812 17.621094 32.1875 19.800781 29.109375 Z M 16.710938 32.003906 C 16.890625 32.367188 17.347656 33.546875 17.710938 33.820312 L 17.621094 33.726562 C 18.164062 34.453125 18.527344 34.542969 19.074219 35.085938 C 17.347656 35.632812 15.804688 33.910156 16.710938 32.003906 Z M 44.683594 21.5 C 46.5 19.6875 50.402344 21.136719 49.859375 23.945312 C 48.40625 21.589844 46.226562 21.410156 44.683594 21.5 Z M 2.363281 57.640625 L 9.539062 56.828125 C 9.539062 56.828125 9.722656 58.003906 9.445312 58.003906 C 9.265625 58.003906 2 57.914062 1.816406 57.820312 C 1.636719 57.730469 2.363281 57.640625 2.363281 57.640625 Z M 1.636719 46.683594 C 1.636719 46.683594 18.980469 41.066406 19.527344 41.066406 C 20.070312 41.15625 20.527344 41.609375 20.164062 41.789062 C 19.890625 41.878906 0.0898438 47.585938 0.00390625 47.40625 C -0.0898438 47.222656 1.636719 46.683594 1.636719 46.683594 Z M 14.078125 35.085938 C 14.351562 35.175781 15.167969 35.898438 15.441406 35.898438 C 16.078125 36.175781 16.347656 36.082031 16.988281 36.261719 C 15.984375 37.261719 14.171875 36.71875 14.078125 35.085938 Z M 41.867188 24.578125 C 43.046875 22.3125 47.226562 22.589844 47.5 25.398438 C 45.410156 23.582031 43.230469 23.945312 41.867188 24.578125 Z M 35.238281 22.675781 C 36.601562 20.503906 40.6875 21.136719 40.78125 24.035156 C 38.871094 22.046875 36.691406 22.226562 35.238281 22.675781 Z M 18.347656 55.554688 C 18.890625 55.554688 19.34375 56.644531 19.34375 57.820312 C 19.34375 59.089844 18.890625 60.085938 18.347656 60.085938 C 17.894531 60.085938 17.53125 59.359375 17.441406 58.453125 C 17.621094 59 17.894531 59.359375 18.164062 59.359375 C 18.621094 59.359375 18.980469 58.546875 18.980469 57.550781 C 18.980469 56.464844 18.621094 55.648438 18.164062 55.648438 C 18.164062 55.648438 18.257812 55.554688 18.347656 55.554688 Z M 28.15625 55.195312 C 28.519531 55.195312 28.789062 55.375 28.972656 55.828125 C 28.882812 55.648438 28.699219 55.554688 28.519531 55.554688 C 27.882812 55.554688 27.429688 56.554688 27.429688 57.730469 C 27.429688 58.816406 27.792969 59.722656 28.335938 59.90625 C 28.246094 59.90625 28.246094 59.90625 28.15625 59.90625 C 27.515625 59.90625 27.066406 58.816406 27.066406 57.550781 C 27.066406 56.191406 27.515625 55.195312 28.15625 55.195312 Z M 24.433594 55.554688 C 24.703125 55.554688 24.976562 55.828125 25.15625 56.191406 C 25.066406 56.007812 24.886719 55.917969 24.703125 55.917969 C 24.070312 55.917969 23.613281 56.828125 23.613281 58.003906 C 23.613281 59 23.976562 59.816406 24.523438 59.996094 C 24.433594 59.996094 24.433594 59.996094 24.433594 59.996094 C 23.707031 59.996094 23.25 59 23.25 57.730469 C 23.25 56.554688 23.707031 55.554688 24.433594 55.554688 Z M 33.511719 58.546875 C 33.785156 58.546875 34.054688 58.003906 34.054688 57.371094 C 34.054688 56.828125 33.785156 56.28125 33.511719 56.28125 C 33.148438 56.28125 32.878906 56.828125 32.878906 57.371094 C 32.878906 58.003906 33.148438 58.546875 33.511719 58.546875 Z M 34.511719 56.191406 C 34.695312 56.191406 34.875 55.738281 34.875 55.195312 C 34.875 54.652344 34.695312 54.199219 34.511719 54.199219 C 34.238281 54.199219 34.054688 54.652344 34.054688 55.195312 C 34.054688 55.738281 34.238281 56.191406 34.511719 56.191406 Z M 34.332031 50.304688 C 34.511719 50.304688 34.695312 50.304688 34.875 50.394531 C 33.425781 50.578125 32.515625 52.113281 32.242188 54.109375 C 32.605469 52.839844 33.148438 51.933594 33.875 51.84375 C 33.0625 52.386719 32.421875 53.925781 32.421875 55.828125 C 32.421875 57.371094 32.785156 58.726562 33.328125 59.449219 C 33.695312 59.816406 34.054688 60.085938 34.605469 60.179688 C 34.695312 60.179688 34.875 60.179688 34.964844 60.179688 C 34.785156 60.269531 34.511719 60.359375 34.332031 60.359375 C 32.421875 60.359375 31.425781 58.09375 31.425781 55.285156 C 31.425781 52.566406 32.421875 50.304688 34.332031 50.304688 Z M 34.605469 56.644531 L 39.234375 56.644531 C 39.234375 56.828125 39.234375 57.097656 39.234375 57.277344 C 39.234375 57.550781 39.234375 57.820312 39.324219 58.09375 L 34.605469 58.09375 C 34.695312 57.914062 34.695312 57.640625 34.695312 57.371094 C 34.695312 57.097656 34.695312 56.828125 34.605469 56.644531 Z M 41.324219 56.097656 L 46.046875 51.570312 C 46.136719 52.113281 46.316406 52.566406 46.5 52.929688 L 41.597656 57.371094 C 41.597656 56.917969 41.503906 56.371094 41.324219 56.097656 Z M 41.324219 53.566406 C 41.503906 53.566406 41.777344 54.109375 41.777344 54.742188 L 40.960938 55.554688 C 40.871094 55.285156 40.78125 55.011719 40.78125 54.742188 C 40.78125 54.109375 41.050781 53.566406 41.324219 53.566406 Z M 40.417969 58.546875 C 40.6875 58.546875 41.050781 58.003906 41.050781 57.371094 C 41.050781 56.828125 40.6875 56.28125 40.417969 56.28125 C 40.050781 56.28125 39.777344 56.828125 39.777344 57.371094 C 39.777344 58.003906 40.050781 58.546875 40.417969 58.546875 Z M 38.871094 53.113281 C 39.234375 51.84375 39.777344 51.027344 40.417969 50.9375 C 39.597656 51.480469 39.050781 53.113281 39.050781 55.105469 C 39.050781 55.464844 39.050781 55.828125 39.050781 56.097656 L 38.054688 56.097656 C 38.054688 55.648438 37.964844 55.195312 37.964844 54.742188 C 37.964844 51.660156 39.050781 49.214844 40.871094 49.214844 C 41.050781 49.214844 41.324219 49.214844 41.503906 49.304688 C 40.050781 49.578125 39.144531 51.027344 38.871094 53.113281 Z M 39.777344 59.089844 C 40.230469 59.722656 40.78125 60.085938 41.597656 60.085938 C 41.324219 60.179688 41.140625 60.269531 40.871094 60.269531 C 40.050781 60.269531 39.414062 59.816406 38.960938 59.089844 Z M 53.855469 54.5625 C 54.21875 54.5625 54.582031 54.921875 54.765625 55.375 C 54.128906 54.832031 53.671875 55.285156 53.402344 56.007812 C 53.128906 57.007812 53.128906 59.722656 54.039062 60.085938 C 53.949219 60.085938 53.949219 60.085938 53.855469 60.085938 C 53.21875 60.085938 52.582031 58.816406 52.582031 57.371094 C 52.582031 55.828125 53.21875 54.5625 53.855469 54.5625 Z M 47.953125 49.851562 C 46.5 51.570312 47.773438 53.65625 48.40625 53.65625 L 54.3125 53.472656 C 54.21875 53.382812 54.128906 53.203125 53.949219 53.113281 C 52.765625 53.019531 49.132812 53.019531 48.859375 52.839844 C 48.679688 52.65625 52.128906 52.023438 53.492188 51.84375 C 53.308594 50.757812 53.402344 49.667969 53.949219 49.214844 Z M 66.75 53.566406 L 69.929688 56.28125 L 68.113281 53.566406 Z M 62.210938 40.972656 C 62.300781 40.972656 62.390625 40.972656 62.484375 41.066406 C 62.210938 41.246094 62.03125 41.699219 62.03125 42.152344 C 62.03125 42.695312 62.210938 43.148438 62.574219 43.328125 C 62.484375 43.421875 62.390625 43.421875 62.210938 43.421875 C 61.847656 43.421875 61.484375 42.878906 61.484375 42.242188 C 61.484375 41.515625 61.847656 40.972656 62.210938 40.972656 Z M 61.574219 37.621094 C 62.484375 37.621094 63.207031 38.4375 63.664062 39.617188 C 62.664062 38.074219 61.394531 38.347656 60.757812 39.25 C 60.210938 40.070312 60.121094 41.246094 60.121094 42.242188 C 60.121094 44.144531 61.03125 45.773438 62.210938 45.773438 C 62.390625 45.773438 62.574219 45.683594 62.753906 45.59375 C 62.484375 45.953125 62.03125 46.136719 61.574219 46.136719 C 60.300781 46.136719 59.214844 44.234375 59.214844 41.878906 C 59.214844 39.617188 60.300781 37.621094 61.574219 37.621094 Z M 55.492188 51.84375 L 68.75 51.84375 L 64.390625 52.476562 L 63.933594 52.476562 L 68.933594 57.277344 L 68.75 57.277344 L 63.84375 54.109375 L 65.933594 57.277344 L 65.753906 57.277344 L 61.9375 53.382812 L 63.753906 57.277344 L 63.574219 57.277344 L 60.667969 53.382812 L 61.484375 57.277344 L 61.304688 57.277344 L 59.394531 53.019531 L 59.578125 57.277344 L 59.394531 57.277344 L 58.035156 52.476562 Z M 48.042969 55.195312 C 48.40625 55.195312 48.679688 55.375 48.953125 55.828125 C 48.316406 55.375 47.773438 55.828125 47.589844 56.464844 C 47.226562 57.277344 47.226562 59.722656 48.226562 60.085938 C 48.136719 60.085938 48.136719 60.085938 48.042969 60.085938 C 47.320312 60.085938 46.769531 59 46.769531 57.640625 C 46.769531 56.28125 47.320312 55.195312 48.042969 55.195312 Z M 11.988281 56.097656 C 12.445312 56.097656 12.804688 56.828125 12.898438 57.730469 L 17.984375 57.371094 L 17.984375 58.09375 L 12.898438 58.183594 C 12.898438 59.269531 12.445312 60.179688 11.988281 60.179688 C 11.535156 60.179688 11.171875 59.542969 11.082031 58.726562 C 11.261719 59.179688 11.445312 59.542969 11.808594 59.542969 C 12.171875 59.542969 12.445312 59 12.539062 58.273438 L 11.535156 58.273438 L 11.535156 57.820312 L 12.625 57.730469 C 12.539062 56.828125 12.171875 56.191406 11.808594 56.191406 L 11.71875 56.191406 C 11.808594 56.191406 11.898438 56.097656 11.988281 56.097656 Z M 60.300781 60.628906 L 62.664062 60.628906 C 62.300781 60.269531 62.03125 59.722656 61.847656 59.089844 L 61.03125 59.089844 C 60.851562 59.722656 60.667969 60.269531 60.300781 60.628906 Z M 55.761719 60.628906 L 57.945312 60.628906 C 57.582031 60.269531 57.398438 59.722656 57.214844 59 L 57.125 58.726562 L 56.671875 58.726562 C 56.488281 59.542969 56.214844 60.269531 55.761719 60.628906 Z M 50.039062 60.628906 L 52.765625 60.628906 C 52.3125 60.269531 52.039062 59.542969 51.859375 58.726562 L 50.949219 58.726562 C 50.859375 59.542969 50.492188 60.269531 50.039062 60.628906 Z M 42.957031 60.628906 L 44.957031 60.628906 C 44.59375 60.269531 44.320312 59.816406 44.140625 59.269531 C 43.777344 59.816406 43.410156 60.269531 42.957031 60.628906 Z M 36.507812 60.628906 L 39.050781 60.628906 C 38.507812 60.179688 38.054688 59.632812 37.691406 58.90625 C 37.417969 59.632812 36.964844 60.179688 36.507812 60.628906 Z M 31.152344 60.628906 L 32.242188 60.628906 C 32.058594 60.449219 31.789062 60.179688 31.605469 59.90625 C 31.515625 60.179688 31.335938 60.449219 31.152344 60.628906 Z M 25.882812 60.628906 L 27.246094 60.628906 C 26.886719 60.359375 26.703125 59.90625 26.523438 59.359375 C 26.429688 59.90625 26.160156 60.359375 25.882812 60.628906 Z M 20.347656 60.628906 L 23.429688 60.628906 C 22.886719 60.179688 22.617188 59.269531 22.617188 58.183594 L 22.523438 58.183594 L 21.070312 58.09375 C 20.980469 59.179688 20.800781 60.085938 20.347656 60.628906 Z M 13.988281 60.628906 L 17.621094 60.628906 C 17.253906 60.179688 16.988281 59.542969 16.890625 58.726562 L 14.625 58.726562 C 14.53125 59.542969 14.351562 60.179688 13.988281 60.628906 Z M 3.089844 60.628906 L 11.171875 60.628906 C 10.71875 60.179688 10.535156 59.359375 10.449219 58.453125 L 10.085938 58.453125 L 10.085938 55.828125 L 3.363281 56.554688 L 2.820312 56.28125 L 8.902344 55.375 L 8.902344 49.125 L 2.179688 50.394531 L 1.457031 50.214844 L 19.890625 45.863281 L 19.890625 47.042969 L 18.980469 47.222656 L 18.980469 50.757812 L 18.4375 50.847656 L 17.894531 47.40625 L 16.710938 47.675781 L 16.710938 51.300781 L 16.261719 51.300781 L 15.804688 47.859375 L 14.351562 48.128906 L 14.351562 51.753906 L 13.808594 51.753906 L 13.445312 48.21875 L 11.988281 48.492188 L 11.988281 52.113281 L 11.628906 52.113281 L 11.355469 48.671875 L 9.992188 48.945312 L 9.992188 55.195312 L 20.710938 53.472656 L 20.710938 43.601562 L 3.363281 47.765625 L 3.363281 47.496094 L 20.710938 42.511719 L 23.34375 43.148438 L 23.34375 45.953125 C 24.703125 45.773438 29.703125 44.867188 29.703125 45.140625 C 29.703125 45.320312 24.976562 46.863281 23.34375 47.222656 L 23.34375 51.480469 C 24.703125 51.390625 29.703125 50.757812 29.703125 50.9375 C 29.703125 51.210938 24.976562 52.476562 23.34375 52.746094 L 23.34375 53.65625 L 29.605469 52.839844 L 30.425781 52.746094 L 30.425781 39.34375 L 29.425781 39.527344 L 29.425781 42.878906 L 24.339844 43.875 L 24.339844 40.792969 L 23.34375 41.066406 L 23.34375 42.785156 C 23.34375 42.785156 23.164062 41.96875 22.800781 41.699219 C 22.523438 41.515625 22.25 41.425781 21.980469 41.425781 L 21.796875 41.425781 L 21.707031 41.335938 L 21.617188 41.335938 L 20.800781 40.523438 L 30.425781 37.894531 L 30.425781 37.53125 L 20.890625 39.707031 L 21.164062 39.433594 L 30.425781 36.441406 C 30.425781 36.441406 33.328125 35.539062 36.054688 35.8125 C 38.871094 36.175781 40.871094 37.351562 40.871094 37.351562 L 40.871094 37.984375 L 39.6875 38.164062 L 39.777344 39.527344 L 41.324219 39.25 C 39.597656 40.070312 38.234375 41.425781 37.417969 43.148438 L 45.863281 40.613281 C 46.136719 39.707031 46.589844 38.800781 47.132812 38.164062 L 42.140625 39.25 L 45.953125 38.074219 L 45.953125 34.089844 C 45.683594 34 45.410156 34 45.136719 34.089844 C 44.320312 34.363281 43.6875 34.816406 43.6875 34.816406 C 43.6875 34.816406 43.410156 34.632812 43.410156 34.453125 C 43.410156 34.179688 44.050781 32.910156 46.410156 33.09375 L 46.589844 33.09375 L 46.589844 32.367188 C 45.589844 32.097656 44.320312 32.460938 43.59375 33.003906 C 43.867188 32.097656 45.136719 31.644531 46.410156 31.734375 C 46.046875 31.101562 45.589844 30.921875 44.683594 31.101562 C 44.867188 30.921875 45.136719 30.828125 45.320312 30.738281 L 45.320312 30.648438 C 45.136719 30.648438 45.046875 30.558594 45.046875 30.558594 L 45.046875 29.472656 C 45.136719 29.378906 45.230469 29.292969 45.320312 29.292969 L 45.320312 29.199219 C 45.320312 29.109375 45.5 28.929688 45.683594 28.929688 C 45.863281 28.929688 45.953125 29.109375 45.953125 29.199219 L 45.953125 29.292969 C 46.136719 29.378906 46.226562 29.472656 46.226562 29.558594 L 46.226562 30.46875 C 46.226562 30.558594 46.136719 30.648438 45.953125 30.648438 C 46.046875 30.738281 46.226562 30.738281 46.316406 30.738281 C 47.042969 31.011719 47.589844 31.644531 47.863281 32.1875 C 48.042969 32.28125 48.226562 32.460938 48.40625 32.550781 C 48.953125 33.003906 48.859375 33.09375 48.859375 33.09375 C 48.859375 33.09375 48.859375 34.089844 48.679688 34.273438 C 48.589844 34.453125 48.226562 34.453125 48.042969 34.453125 L 48.042969 37.441406 L 48.136719 37.351562 C 48.316406 37.351562 48.40625 37.261719 48.5 37.261719 L 48.679688 37.171875 L 55.945312 34.90625 L 55.945312 30.015625 C 54.765625 29.835938 53.21875 30.285156 53.128906 30.921875 L 53.128906 33.453125 L 52.675781 30.828125 L 50.589844 28.472656 C 51.949219 26.84375 55.582031 26.484375 58.035156 27.296875 L 58.035156 26.390625 C 56.125 24.667969 52.128906 24.667969 50.222656 26.027344 C 50.492188 24.667969 54.855469 23.132812 57.851562 24.128906 C 57.308594 23.132812 56.214844 22.496094 54.855469 22.496094 C 54.3125 22.496094 53.765625 22.589844 53.308594 22.769531 C 54.128906 22.226562 55.128906 21.953125 56.125 21.953125 C 56.941406 21.953125 57.761719 22.226562 58.304688 22.589844 C 57.671875 21.769531 56.671875 21.226562 55.398438 21.226562 C 54.855469 21.226562 54.402344 21.316406 53.855469 21.5 C 54.765625 20.957031 55.671875 20.683594 56.671875 20.683594 C 56.941406 20.683594 57.214844 20.683594 57.488281 20.773438 C 56.941406 20.234375 56.214844 19.960938 55.398438 19.960938 C 53.765625 19.960938 52.402344 21.226562 52.3125 22.769531 C 52.222656 22.675781 52.222656 22.589844 52.222656 22.496094 C 52.222656 21.679688 52.492188 20.867188 52.949219 20.324219 C 52.039062 19.144531 50.589844 18.601562 49.222656 19.144531 C 50.3125 18.148438 52.222656 17.96875 53.949219 19.324219 C 53.949219 19.238281 54.039062 19.144531 54.128906 19.144531 C 52.855469 16.609375 48.953125 16.878906 47.953125 19.6875 C 47.863281 19.324219 47.863281 19.054688 47.953125 18.695312 C 47.226562 18.148438 46.316406 17.785156 45.230469 17.785156 C 43.957031 17.785156 42.777344 18.417969 41.960938 19.324219 C 42.59375 17.785156 44.140625 16.699219 45.953125 16.699219 C 46.863281 16.699219 47.773438 17.0625 48.5 17.515625 C 48.589844 17.421875 48.679688 17.242188 48.769531 17.152344 C 46.136719 13.257812 39.324219 15.25 39.414062 19.867188 C 39.507812 20.140625 39.507812 20.414062 39.507812 20.683594 L 39.414062 20.414062 C 36.242188 18.511719 31.605469 20.867188 32.605469 25.578125 C 32.605469 25.578125 32.421875 25.398438 32.152344 24.941406 L 32.152344 25.03125 C 29.96875 24.851562 28.882812 25.757812 27.792969 27.570312 C 27.972656 25.214844 29.789062 24.128906 31.878906 24.035156 C 31.789062 23.765625 31.789062 23.492188 31.695312 23.132812 C 31.335938 23.039062 30.972656 23.039062 30.609375 23.039062 C 28.246094 23.039062 26.160156 24.667969 25.703125 26.933594 C 25.519531 27.476562 25.429688 28.019531 25.429688 28.5625 C 25.429688 29.558594 25.703125 30.46875 26.160156 31.191406 C 25.15625 30.101562 24.613281 28.746094 24.613281 27.207031 C 24.613281 23.945312 27.246094 21.226562 30.515625 21.226562 C 30.972656 21.226562 31.425781 21.316406 31.789062 21.410156 C 32.605469 18.511719 36.328125 16.429688 39.324219 17.695312 C 40.230469 12.800781 47.679688 11.082031 50.222656 16.152344 C 52.222656 15.429688 54.855469 16.246094 55.671875 18.601562 C 55.855469 18.601562 56.035156 18.601562 56.214844 18.601562 C 58.398438 18.601562 60.121094 20.324219 60.121094 22.496094 C 60.121094 23.398438 59.847656 24.128906 59.304688 24.851562 C 59.847656 25.214844 60.210938 25.664062 60.484375 26.207031 C 60.484375 26.207031 60.121094 28.292969 59.847656 28.472656 L 57.851562 30.738281 C 57.851562 30.828125 57.851562 30.921875 57.851562 31.011719 L 57.851562 35.992188 L 56.941406 35.992188 L 48.859375 37.804688 C 47.953125 38.527344 47.226562 39.34375 46.679688 40.339844 L 55.308594 37.714844 C 55.128906 38.4375 54.855469 39.160156 54.765625 39.980469 L 46.046875 41.878906 C 45.863281 42.332031 45.773438 42.878906 45.683594 43.421875 L 54.675781 41.15625 C 54.675781 41.246094 54.675781 41.425781 54.675781 41.515625 C 54.675781 42.152344 54.675781 42.695312 54.765625 43.238281 L 36.691406 46.226562 L 36.691406 46.316406 L 31.96875 47.042969 L 32.058594 46.863281 L 36.601562 45.683594 C 36.601562 45.140625 36.601562 44.507812 36.691406 43.875 L 33.695312 44.507812 L 33.785156 44.324219 L 36.785156 43.328125 C 37.054688 42.242188 37.597656 41.15625 38.328125 40.429688 C 35.421875 40.613281 32.96875 41.515625 31.515625 43.78125 C 31.515625 43.78125 31.0625 45.320312 31.242188 47.222656 C 31.242188 48.21875 31.242188 48.761719 31.242188 49.125 L 51.042969 45.59375 L 51.042969 48.039062 L 55.582031 47.40625 C 55.039062 46.042969 55.039062 44.6875 55.398438 42.96875 C 55.855469 45.503906 56.578125 47.132812 58.125 48.402344 C 58.667969 48.582031 59.125 48.761719 59.394531 48.851562 C 57.671875 47.765625 56.488281 45.140625 56.488281 42.058594 C 56.488281 39.160156 57.582031 36.625 59.214844 35.453125 L 58.488281 35.453125 L 58.488281 32.460938 C 58.488281 32.460938 58.398438 31.460938 59.125 30.828125 C 59.847656 30.285156 61.574219 30.285156 61.574219 30.285156 C 62.484375 30.46875 63.207031 30.828125 63.207031 31.914062 L 63.207031 35.355469 C 64.84375 36.441406 66.023438 39.070312 66.023438 42.058594 C 66.023438 44.597656 65.207031 46.863281 63.933594 48.21875 C 64.117188 48.128906 64.300781 48.039062 64.484375 47.949219 C 64.84375 47.675781 65.207031 47.40625 65.480469 47.132812 L 67.113281 50.847656 L 69.566406 50.847656 L 69.566406 52.65625 L 72.292969 57.820312 L 74.015625 57.820312 L 74.015625 59.089844 L 66.476562 59.089844 C 66.386719 59.722656 66.117188 60.269531 65.664062 60.628906 L 74.382812 60.628906 C 78.921875 60.628906 77.464844 61.445312 74.195312 61.625 L 52.128906 62.53125 L 3 61.082031 C 0.367188 60.992188 1.09375 60.628906 3.089844 60.628906 Z M 61.757812 31.101562 C 62.300781 31.101562 62.664062 31.914062 62.664062 32.910156 C 62.664062 33.910156 62.300781 34.722656 61.757812 34.722656 C 61.304688 34.722656 60.941406 33.910156 60.941406 32.910156 C 60.941406 31.914062 61.304688 31.101562 61.757812 31.101562" fill-rule="evenodd"/></g></svg>