<svg xmlns="http://www.w3.org/2000/svg" width="75" viewBox="0 0 75 75" height="75" version="1.0"><defs><clipPath id="a"><path d="M 0 7.527344 L 75 7.527344 L 75 56.96875 L 0 56.96875 Z M 0 7.527344"/></clipPath></defs><g clip-path="url(#a)"><path fill="#FFF" d="M 27.101562 37.132812 L 27.101562 35.59375 L 24.375 35.230469 L 24.375 37.679688 Z M 30.824219 35.957031 L 30.824219 33.058594 L 34.183594 33.148438 L 34.183594 34.234375 C 32.910156 34.417969 31.734375 34.6875 30.824219 35.957031 Z M 35.546875 33.148438 L 35.546875 34.144531 L 37.726562 34.054688 L 37.726562 33.238281 Z M 44.265625 37.949219 C 44.265625 37.40625 44.355469 36.953125 44.445312 36.410156 L 36.089844 38.222656 C 35.820312 38.765625 35.726562 39.398438 35.640625 40.121094 Z M 22.46875 27.347656 C 19.019531 26.082031 19.566406 20.285156 22.378906 19.378906 C 22.378906 19.378906 22.378906 19.378906 22.46875 19.378906 C 22.46875 19.46875 21.835938 20.195312 21.65625 20.558594 C 20.472656 22.910156 21.015625 25.359375 22.46875 27.347656 Z M 18.65625 23.546875 C 18.746094 26.355469 18.925781 26.539062 20.472656 28.621094 C 19.65625 29.070312 16.476562 26.625 18.65625 23.546875 Z M 15.566406 26.445312 C 15.746094 26.804688 16.203125 27.984375 16.566406 28.257812 L 16.476562 28.167969 C 17.019531 28.890625 17.382812 28.980469 17.929688 29.523438 C 16.203125 30.070312 14.660156 28.347656 15.566406 26.445312 Z M 43.539062 15.9375 C 45.355469 14.125 49.257812 15.574219 48.714844 18.382812 C 47.261719 16.027344 45.082031 15.847656 43.539062 15.9375 Z M 1.21875 52.078125 L 8.394531 51.265625 C 8.394531 51.265625 8.578125 52.441406 8.300781 52.441406 C 8.121094 52.441406 0.855469 52.351562 0.671875 52.261719 C 0.492188 52.167969 1.21875 52.078125 1.21875 52.078125 Z M 0.492188 41.121094 C 0.492188 41.121094 17.835938 35.503906 18.382812 35.503906 C 18.925781 35.59375 19.382812 36.046875 19.019531 36.226562 C 18.746094 36.316406 -1.054688 42.023438 -1.140625 41.84375 C -1.234375 41.664062 0.492188 41.121094 0.492188 41.121094 Z M 12.933594 29.523438 C 13.207031 29.613281 14.023438 30.339844 14.296875 30.339844 C 14.933594 30.613281 15.203125 30.519531 15.84375 30.699219 C 14.839844 31.699219 13.027344 31.15625 12.933594 29.523438 Z M 40.722656 19.015625 C 41.902344 16.753906 46.082031 17.027344 46.355469 19.835938 C 44.265625 18.023438 42.085938 18.382812 40.722656 19.015625 Z M 34.09375 17.113281 C 35.457031 14.941406 39.542969 15.574219 39.636719 18.472656 C 37.726562 16.484375 35.546875 16.664062 34.09375 17.113281 Z M 17.203125 49.996094 C 17.746094 49.996094 18.199219 51.082031 18.199219 52.261719 C 18.199219 53.527344 17.746094 54.527344 17.203125 54.527344 C 16.75 54.527344 16.386719 53.796875 16.296875 52.894531 C 16.476562 53.4375 16.75 53.796875 17.019531 53.796875 C 17.476562 53.796875 17.835938 52.984375 17.835938 51.988281 C 17.835938 50.902344 17.476562 50.085938 17.019531 50.085938 C 17.019531 50.085938 17.113281 49.996094 17.203125 49.996094 Z M 27.011719 49.632812 C 27.375 49.632812 27.644531 49.8125 27.828125 50.265625 C 27.738281 50.085938 27.554688 49.996094 27.375 49.996094 C 26.738281 49.996094 26.285156 50.992188 26.285156 52.167969 C 26.285156 53.253906 26.648438 54.160156 27.191406 54.34375 C 27.101562 54.34375 27.101562 54.34375 27.011719 54.34375 C 26.371094 54.34375 25.921875 53.253906 25.921875 51.988281 C 25.921875 50.628906 26.371094 49.632812 27.011719 49.632812 Z M 23.289062 49.996094 C 23.558594 49.996094 23.832031 50.265625 24.011719 50.628906 C 23.921875 50.449219 23.742188 50.355469 23.558594 50.355469 C 22.925781 50.355469 22.46875 51.265625 22.46875 52.441406 C 22.46875 53.4375 22.832031 54.253906 23.378906 54.433594 C 23.289062 54.433594 23.289062 54.433594 23.289062 54.433594 C 22.5625 54.433594 22.105469 53.4375 22.105469 52.167969 C 22.105469 50.992188 22.5625 49.996094 23.289062 49.996094 Z M 32.367188 52.984375 C 32.640625 52.984375 32.910156 52.441406 32.910156 51.808594 C 32.910156 51.265625 32.640625 50.71875 32.367188 50.71875 C 32.003906 50.71875 31.734375 51.265625 31.734375 51.808594 C 31.734375 52.441406 32.003906 52.984375 32.367188 52.984375 Z M 33.367188 50.628906 C 33.550781 50.628906 33.730469 50.175781 33.730469 49.632812 C 33.730469 49.089844 33.550781 48.636719 33.367188 48.636719 C 33.09375 48.636719 32.910156 49.089844 32.910156 49.632812 C 32.910156 50.175781 33.09375 50.628906 33.367188 50.628906 Z M 33.1875 44.742188 C 33.367188 44.742188 33.550781 44.742188 33.730469 44.832031 C 32.28125 45.015625 31.371094 46.554688 31.097656 48.546875 C 31.460938 47.277344 32.003906 46.371094 32.730469 46.28125 C 31.917969 46.824219 31.277344 48.367188 31.277344 50.265625 C 31.277344 51.808594 31.640625 53.164062 32.183594 53.890625 C 32.550781 54.253906 32.910156 54.527344 33.460938 54.617188 C 33.550781 54.617188 33.730469 54.617188 33.820312 54.617188 C 33.640625 54.707031 33.367188 54.796875 33.1875 54.796875 C 31.277344 54.796875 30.28125 52.53125 30.28125 49.722656 C 30.28125 47.003906 31.277344 44.742188 33.1875 44.742188 Z M 33.460938 51.082031 L 38.089844 51.082031 C 38.089844 51.265625 38.089844 51.535156 38.089844 51.71875 C 38.089844 51.988281 38.089844 52.261719 38.179688 52.53125 L 33.460938 52.53125 C 33.550781 52.351562 33.550781 52.078125 33.550781 51.808594 C 33.550781 51.535156 33.550781 51.265625 33.460938 51.082031 Z M 40.179688 50.539062 L 44.902344 46.007812 C 44.992188 46.554688 45.171875 47.003906 45.355469 47.367188 L 40.453125 51.808594 C 40.453125 51.355469 40.359375 50.808594 40.179688 50.539062 Z M 40.179688 48.003906 C 40.359375 48.003906 40.632812 48.546875 40.632812 49.179688 L 39.816406 49.996094 C 39.726562 49.722656 39.636719 49.453125 39.636719 49.179688 C 39.636719 48.546875 39.90625 48.003906 40.179688 48.003906 Z M 39.273438 52.984375 C 39.542969 52.984375 39.90625 52.441406 39.90625 51.808594 C 39.90625 51.265625 39.542969 50.71875 39.273438 50.71875 C 38.90625 50.71875 38.632812 51.265625 38.632812 51.808594 C 38.632812 52.441406 38.90625 52.984375 39.273438 52.984375 Z M 37.726562 47.550781 C 38.089844 46.28125 38.632812 45.464844 39.273438 45.375 C 38.453125 45.917969 37.910156 47.550781 37.910156 49.542969 C 37.910156 49.902344 37.910156 50.265625 37.910156 50.539062 L 36.910156 50.539062 C 36.910156 50.085938 36.820312 49.632812 36.820312 49.179688 C 36.820312 46.101562 37.910156 43.652344 39.726562 43.652344 C 39.90625 43.652344 40.179688 43.652344 40.359375 43.746094 C 38.90625 44.015625 38 45.464844 37.726562 47.550781 Z M 38.632812 53.527344 C 39.085938 54.160156 39.636719 54.527344 40.453125 54.527344 C 40.179688 54.617188 40 54.707031 39.726562 54.707031 C 38.90625 54.707031 38.269531 54.253906 37.816406 53.527344 Z M 52.710938 49 C 53.074219 49 53.4375 49.359375 53.621094 49.8125 C 52.984375 49.269531 52.527344 49.722656 52.257812 50.449219 C 51.984375 51.445312 51.984375 54.160156 52.894531 54.527344 C 52.804688 54.527344 52.804688 54.527344 52.710938 54.527344 C 52.074219 54.527344 51.4375 53.253906 51.4375 51.808594 C 51.4375 50.265625 52.074219 49 52.710938 49 Z M 46.808594 44.289062 C 45.355469 46.007812 46.628906 48.09375 47.261719 48.09375 L 53.167969 47.914062 C 53.074219 47.824219 52.984375 47.640625 52.804688 47.550781 C 51.621094 47.457031 47.988281 47.457031 47.714844 47.277344 C 47.535156 47.097656 50.984375 46.460938 52.347656 46.28125 C 52.164062 45.195312 52.257812 44.105469 52.804688 43.652344 Z M 65.605469 48.003906 L 68.785156 50.71875 L 66.96875 48.003906 Z M 61.066406 35.414062 C 61.15625 35.414062 61.246094 35.414062 61.339844 35.503906 C 61.066406 35.683594 60.886719 36.136719 60.886719 36.589844 C 60.886719 37.132812 61.066406 37.589844 61.429688 37.769531 C 61.339844 37.859375 61.246094 37.859375 61.066406 37.859375 C 60.703125 37.859375 60.339844 37.316406 60.339844 36.679688 C 60.339844 35.957031 60.703125 35.414062 61.066406 35.414062 Z M 60.429688 32.0625 C 61.339844 32.0625 62.0625 32.875 62.519531 34.054688 C 61.519531 32.515625 60.25 32.785156 59.613281 33.691406 C 59.066406 34.507812 58.976562 35.683594 58.976562 36.679688 C 58.976562 38.582031 59.886719 40.210938 61.066406 40.210938 C 61.246094 40.210938 61.429688 40.121094 61.609375 40.03125 C 61.339844 40.394531 60.886719 40.574219 60.429688 40.574219 C 59.15625 40.574219 58.070312 38.671875 58.070312 36.316406 C 58.070312 34.054688 59.15625 32.0625 60.429688 32.0625 Z M 54.347656 46.28125 L 67.605469 46.28125 L 63.246094 46.914062 L 62.789062 46.914062 L 67.789062 51.71875 L 67.605469 51.71875 L 62.699219 48.546875 L 64.789062 51.71875 L 64.609375 51.71875 L 60.792969 47.824219 L 62.609375 51.71875 L 62.429688 51.71875 L 59.523438 47.824219 L 60.339844 51.71875 L 60.160156 51.71875 L 58.25 47.457031 L 58.433594 51.71875 L 58.25 51.71875 L 56.890625 46.914062 Z M 46.898438 49.632812 C 47.261719 49.632812 47.535156 49.8125 47.808594 50.265625 C 47.171875 49.8125 46.628906 50.265625 46.445312 50.902344 C 46.082031 51.71875 46.082031 54.160156 47.082031 54.527344 C 46.992188 54.527344 46.992188 54.527344 46.898438 54.527344 C 46.175781 54.527344 45.625 53.4375 45.625 52.078125 C 45.625 50.71875 46.175781 49.632812 46.898438 49.632812 Z M 10.84375 50.539062 C 11.300781 50.539062 11.660156 51.265625 11.753906 52.167969 L 16.839844 51.808594 L 16.839844 52.53125 L 11.753906 52.621094 C 11.753906 53.707031 11.300781 54.617188 10.84375 54.617188 C 10.390625 54.617188 10.027344 53.980469 9.9375 53.164062 C 10.117188 53.617188 10.300781 53.980469 10.664062 53.980469 C 11.027344 53.980469 11.300781 53.4375 11.394531 52.710938 L 10.390625 52.710938 L 10.390625 52.261719 L 11.480469 52.167969 C 11.394531 51.265625 11.027344 50.628906 10.664062 50.628906 L 10.574219 50.628906 C 10.664062 50.628906 10.753906 50.539062 10.84375 50.539062 Z M 59.15625 55.070312 L 61.519531 55.070312 C 61.15625 54.707031 60.886719 54.160156 60.703125 53.527344 L 59.886719 53.527344 C 59.707031 54.160156 59.523438 54.707031 59.15625 55.070312 Z M 54.617188 55.070312 L 56.800781 55.070312 C 56.4375 54.707031 56.253906 54.160156 56.070312 53.4375 L 55.980469 53.164062 L 55.527344 53.164062 C 55.34375 53.980469 55.074219 54.707031 54.617188 55.070312 Z M 48.894531 55.070312 L 51.621094 55.070312 C 51.167969 54.707031 50.894531 53.980469 50.714844 53.164062 L 49.804688 53.164062 C 49.714844 53.980469 49.347656 54.707031 48.894531 55.070312 Z M 41.8125 55.070312 L 43.8125 55.070312 C 43.449219 54.707031 43.175781 54.253906 42.996094 53.707031 C 42.632812 54.253906 42.265625 54.707031 41.8125 55.070312 Z M 35.363281 55.070312 L 37.910156 55.070312 C 37.363281 54.617188 36.910156 54.070312 36.546875 53.347656 C 36.273438 54.070312 35.820312 54.617188 35.363281 55.070312 Z M 30.007812 55.070312 L 31.097656 55.070312 C 30.914062 54.886719 30.644531 54.617188 30.460938 54.34375 C 30.371094 54.617188 30.191406 54.886719 30.007812 55.070312 Z M 24.738281 55.070312 L 26.105469 55.070312 C 25.742188 54.796875 25.558594 54.34375 25.378906 53.796875 C 25.285156 54.34375 25.015625 54.796875 24.738281 55.070312 Z M 19.203125 55.070312 L 22.285156 55.070312 C 21.742188 54.617188 21.472656 53.707031 21.472656 52.621094 L 21.378906 52.621094 L 19.925781 52.53125 C 19.835938 53.617188 19.65625 54.527344 19.203125 55.070312 Z M 12.84375 55.070312 L 16.476562 55.070312 C 16.109375 54.617188 15.84375 53.980469 15.746094 53.164062 L 13.480469 53.164062 C 13.386719 53.980469 13.207031 54.617188 12.84375 55.070312 Z M 1.945312 55.070312 L 10.027344 55.070312 C 9.574219 54.617188 9.390625 53.796875 9.304688 52.894531 L 8.941406 52.894531 L 8.941406 50.265625 L 2.21875 50.992188 L 1.675781 50.71875 L 7.757812 49.8125 L 7.757812 43.5625 L 1.035156 44.832031 L 0.3125 44.652344 L 18.746094 40.300781 L 18.746094 41.480469 L 17.835938 41.664062 L 17.835938 45.195312 L 17.292969 45.285156 L 16.75 41.84375 L 15.566406 42.117188 L 15.566406 45.738281 L 15.117188 45.738281 L 14.660156 42.296875 L 13.207031 42.566406 L 13.207031 46.191406 L 12.664062 46.191406 L 12.300781 42.660156 L 10.84375 42.929688 L 10.84375 46.554688 L 10.484375 46.554688 L 10.210938 43.109375 L 8.847656 43.382812 L 8.847656 49.632812 L 19.566406 47.914062 L 19.566406 38.039062 L 2.21875 42.207031 L 2.21875 41.933594 L 19.566406 36.953125 L 22.199219 37.589844 L 22.199219 40.394531 C 23.558594 40.210938 28.558594 39.308594 28.558594 39.578125 C 28.558594 39.757812 23.832031 41.300781 22.199219 41.664062 L 22.199219 45.917969 C 23.558594 45.828125 28.558594 45.195312 28.558594 45.375 C 28.558594 45.648438 23.832031 46.914062 22.199219 47.1875 L 22.199219 48.09375 L 28.460938 47.277344 L 29.28125 47.1875 L 29.28125 33.78125 L 28.28125 33.964844 L 28.28125 37.316406 L 23.195312 38.3125 L 23.195312 35.230469 L 22.199219 35.503906 L 22.199219 37.222656 C 22.199219 37.222656 22.019531 36.410156 21.65625 36.136719 C 21.378906 35.957031 21.105469 35.863281 20.835938 35.863281 L 20.652344 35.863281 L 20.5625 35.773438 L 20.472656 35.773438 L 19.65625 34.960938 L 29.28125 32.332031 L 29.28125 31.972656 L 19.746094 34.144531 L 20.019531 33.871094 L 29.28125 30.882812 C 29.28125 30.882812 32.183594 29.976562 34.910156 30.25 C 37.726562 30.613281 39.726562 31.789062 39.726562 31.789062 L 39.726562 32.421875 L 38.542969 32.605469 L 38.632812 33.964844 L 40.179688 33.691406 C 38.453125 34.507812 37.089844 35.863281 36.273438 37.589844 L 44.71875 35.050781 C 44.992188 34.144531 45.445312 33.238281 45.988281 32.605469 L 40.996094 33.691406 L 44.808594 32.515625 L 44.808594 28.527344 C 44.539062 28.4375 44.265625 28.4375 43.992188 28.527344 C 43.175781 28.800781 42.542969 29.253906 42.542969 29.253906 C 42.542969 29.253906 42.265625 29.070312 42.265625 28.890625 C 42.265625 28.621094 42.90625 27.347656 45.265625 27.53125 L 45.445312 27.53125 L 45.445312 26.804688 C 44.445312 26.539062 43.175781 26.898438 42.449219 27.441406 C 42.722656 26.539062 43.992188 26.082031 45.265625 26.171875 C 44.902344 25.539062 44.445312 25.359375 43.539062 25.539062 C 43.722656 25.359375 43.992188 25.269531 44.175781 25.175781 L 44.175781 25.085938 C 43.992188 25.085938 43.902344 24.996094 43.902344 24.996094 L 43.902344 23.910156 C 43.992188 23.816406 44.085938 23.730469 44.175781 23.730469 L 44.175781 23.636719 C 44.175781 23.546875 44.355469 23.367188 44.539062 23.367188 C 44.71875 23.367188 44.808594 23.546875 44.808594 23.636719 L 44.808594 23.730469 C 44.992188 23.816406 45.082031 23.910156 45.082031 23.996094 L 45.082031 24.90625 C 45.082031 24.996094 44.992188 25.085938 44.808594 25.085938 C 44.902344 25.175781 45.082031 25.175781 45.171875 25.175781 C 45.898438 25.449219 46.445312 26.082031 46.71875 26.625 C 46.898438 26.71875 47.082031 26.898438 47.261719 26.988281 C 47.808594 27.441406 47.714844 27.53125 47.714844 27.53125 C 47.714844 27.53125 47.714844 28.527344 47.535156 28.710938 C 47.445312 28.890625 47.082031 28.890625 46.898438 28.890625 L 46.898438 31.878906 L 46.992188 31.789062 C 47.171875 31.789062 47.261719 31.699219 47.355469 31.699219 L 47.535156 31.609375 L 54.800781 29.34375 L 54.800781 24.453125 C 53.621094 24.273438 52.074219 24.726562 51.984375 25.359375 L 51.984375 27.890625 L 51.53125 25.269531 L 49.445312 22.910156 C 50.804688 21.28125 54.4375 20.921875 56.890625 21.734375 L 56.890625 20.828125 C 54.980469 19.109375 50.984375 19.109375 49.078125 20.464844 C 49.347656 19.109375 53.710938 17.570312 56.707031 18.566406 C 56.164062 17.570312 55.074219 16.933594 53.710938 16.933594 C 53.167969 16.933594 52.621094 17.027344 52.164062 17.207031 C 52.984375 16.664062 53.984375 16.390625 54.980469 16.390625 C 55.796875 16.390625 56.617188 16.664062 57.164062 17.027344 C 56.527344 16.210938 55.527344 15.667969 54.253906 15.667969 C 53.710938 15.667969 53.257812 15.757812 52.710938 15.9375 C 53.621094 15.394531 54.527344 15.121094 55.527344 15.121094 C 55.796875 15.121094 56.070312 15.121094 56.34375 15.214844 C 55.796875 14.671875 55.074219 14.398438 54.253906 14.398438 C 52.621094 14.398438 51.257812 15.667969 51.167969 17.207031 C 51.078125 17.113281 51.078125 17.027344 51.078125 16.933594 C 51.078125 16.117188 51.347656 15.304688 51.804688 14.761719 C 50.894531 13.582031 49.445312 13.039062 48.078125 13.582031 C 49.167969 12.585938 51.078125 12.40625 52.804688 13.761719 C 52.804688 13.675781 52.894531 13.582031 52.984375 13.582031 C 51.710938 11.046875 47.808594 11.320312 46.808594 14.125 C 46.71875 13.761719 46.71875 13.496094 46.808594 13.132812 C 46.082031 12.585938 45.171875 12.222656 44.085938 12.222656 C 42.8125 12.222656 41.632812 12.859375 40.816406 13.761719 C 41.449219 12.222656 42.996094 11.136719 44.808594 11.136719 C 45.71875 11.136719 46.628906 11.5 47.355469 11.953125 C 47.445312 11.863281 47.535156 11.679688 47.625 11.589844 C 44.992188 7.695312 38.179688 9.6875 38.269531 14.304688 C 38.363281 14.578125 38.363281 14.851562 38.363281 15.121094 L 38.269531 14.851562 C 35.097656 12.953125 30.460938 15.304688 31.460938 20.015625 C 31.460938 20.015625 31.277344 19.835938 31.007812 19.378906 L 31.007812 19.46875 C 28.824219 19.289062 27.738281 20.195312 26.648438 22.007812 C 26.828125 19.652344 28.644531 18.566406 30.734375 18.472656 C 30.644531 18.203125 30.644531 17.933594 30.550781 17.570312 C 30.191406 17.476562 29.828125 17.476562 29.464844 17.476562 C 27.101562 17.476562 25.015625 19.109375 24.558594 21.375 C 24.375 21.917969 24.285156 22.460938 24.285156 23.003906 C 24.285156 23.996094 24.558594 24.90625 25.015625 25.628906 C 24.011719 24.539062 23.46875 23.1875 23.46875 21.644531 C 23.46875 18.382812 26.105469 15.667969 29.371094 15.667969 C 29.828125 15.667969 30.28125 15.757812 30.644531 15.847656 C 31.460938 12.953125 35.183594 10.867188 38.179688 12.132812 C 39.085938 7.242188 46.535156 5.523438 49.078125 10.59375 C 51.078125 9.867188 53.710938 10.6875 54.527344 13.039062 C 54.710938 13.039062 54.890625 13.039062 55.074219 13.039062 C 57.253906 13.039062 58.976562 14.761719 58.976562 16.933594 C 58.976562 17.835938 58.703125 18.566406 58.160156 19.289062 C 58.703125 19.652344 59.066406 20.105469 59.339844 20.644531 C 59.339844 20.644531 58.976562 22.730469 58.703125 22.910156 L 56.707031 25.175781 C 56.707031 25.269531 56.707031 25.359375 56.707031 25.449219 L 56.707031 30.433594 L 55.796875 30.433594 L 47.714844 32.242188 C 46.808594 32.964844 46.082031 33.78125 45.535156 34.777344 L 54.164062 32.152344 C 53.984375 32.875 53.710938 33.597656 53.621094 34.417969 L 44.902344 36.316406 C 44.71875 36.769531 44.628906 37.316406 44.539062 37.859375 L 53.53125 35.59375 C 53.53125 35.683594 53.53125 35.863281 53.53125 35.957031 C 53.53125 36.589844 53.53125 37.132812 53.621094 37.679688 L 35.546875 40.664062 L 35.546875 40.753906 L 30.824219 41.480469 L 30.914062 41.300781 L 35.457031 40.121094 C 35.457031 39.578125 35.457031 38.945312 35.546875 38.3125 L 32.550781 38.945312 L 32.640625 38.765625 L 35.640625 37.769531 C 35.910156 36.679688 36.453125 35.59375 37.183594 34.871094 C 34.277344 35.050781 31.824219 35.957031 30.371094 38.222656 C 30.371094 38.222656 29.917969 39.757812 30.097656 41.664062 C 30.097656 42.660156 30.097656 43.203125 30.097656 43.5625 L 49.898438 40.03125 L 49.898438 42.476562 L 54.4375 41.84375 C 53.894531 40.484375 53.894531 39.125 54.253906 37.40625 C 54.710938 39.941406 55.433594 41.570312 56.980469 42.839844 C 57.523438 43.019531 57.980469 43.203125 58.25 43.292969 C 56.527344 42.207031 55.34375 39.578125 55.34375 36.5 C 55.34375 33.597656 56.4375 31.0625 58.070312 29.890625 L 57.34375 29.890625 L 57.34375 26.898438 C 57.34375 26.898438 57.253906 25.902344 57.980469 25.269531 C 58.703125 24.726562 60.429688 24.726562 60.429688 24.726562 C 61.339844 24.90625 62.0625 25.269531 62.0625 26.355469 L 62.0625 29.796875 C 63.699219 30.882812 64.878906 33.507812 64.878906 36.5 C 64.878906 39.035156 64.0625 41.300781 62.789062 42.660156 C 62.972656 42.566406 63.15625 42.476562 63.339844 42.386719 C 63.699219 42.117188 64.0625 41.84375 64.335938 41.570312 L 65.96875 45.285156 L 68.421875 45.285156 L 68.421875 47.097656 L 71.148438 52.261719 L 72.871094 52.261719 L 72.871094 53.527344 L 65.332031 53.527344 C 65.242188 54.160156 64.972656 54.707031 64.519531 55.070312 L 73.238281 55.070312 C 77.777344 55.070312 76.320312 55.882812 73.050781 56.0625 L 50.984375 56.96875 L 1.855469 55.519531 C -0.777344 55.429688 -0.0507812 55.070312 1.945312 55.070312 Z M 60.613281 25.539062 C 61.15625 25.539062 61.519531 26.355469 61.519531 27.347656 C 61.519531 28.347656 61.15625 29.160156 60.613281 29.160156 C 60.160156 29.160156 59.796875 28.347656 59.796875 27.347656 C 59.796875 26.355469 60.160156 25.539062 60.613281 25.539062" fill-rule="evenodd"/></g></svg>